<svg xmlns="http://www.w3.org/2000/svg" xmlns:xlink="http://www.w3.org/1999/xlink" width="100" viewBox="0 0 75 74.999997" height="100" preserveAspectRatio="xMidYMid meet"><defs><clipPath id="af4e6327d6"><path d="M 11.15625 4.3125 L 64.066406 4.3125 L 64.066406 71.132812 L 11.15625 71.132812 Z M 11.15625 4.3125 " clip-rule="nonzero"></path></clipPath></defs><rect x="-7.5" width="90" fill="#ffffff" y="-7.5" height="89.999996" fill-opacity="1"></rect><rect x="-7.5" width="90" fill="#ffffff" y="-7.5" height="89.999996" fill-opacity="1"></rect><g clip-path="url(#af4e6327d6)"><path fill="#003eaa" d="M 37.234375 71.082031 C 37.359375 71.113281 37.484375 71.128906 37.609375 71.128906 C 37.738281 71.128906 37.863281 71.113281 37.988281 71.082031 C 53.34375 67.039062 64.066406 51.835938 64.066406 34.113281 L 64.066406 11.261719 C 64.066406 10.804688 63.855469 10.375 63.5 10.09375 C 63.140625 9.8125 62.675781 9.710938 62.230469 9.820312 C 60.183594 10.320312 58.085938 10.582031 56.011719 10.597656 L 55.777344 10.597656 C 49.597656 10.597656 43.625 8.53125 38.507812 4.617188 C 37.976562 4.210938 37.242188 4.210938 36.710938 4.617188 C 31.59375 8.53125 25.625 10.597656 19.441406 10.597656 L 19.222656 10.597656 C 17.136719 10.582031 15.039062 10.320312 12.988281 9.820312 C 12.546875 9.710938 12.078125 9.8125 11.722656 10.09375 C 11.367188 10.375 11.15625 10.804688 11.15625 11.261719 L 11.15625 34.117188 C 11.15625 51.839844 21.878906 67.039062 37.234375 71.082031 Z M 14.117188 13.09375 C 15.800781 13.394531 17.503906 13.554688 19.210938 13.570312 L 19.441406 13.570312 C 25.917969 13.570312 32.179688 11.523438 37.613281 7.644531 C 43.046875 11.523438 49.304688 13.570312 55.78125 13.570312 L 56.027344 13.570312 C 57.722656 13.554688 59.425781 13.398438 61.105469 13.09375 L 61.105469 34.113281 C 61.105469 50.339844 51.464844 64.257812 37.613281 68.105469 C 23.757812 64.253906 14.121094 50.339844 14.121094 34.113281 L 14.121094 13.09375 Z M 14.117188 13.09375 " fill-opacity="1" fill-rule="nonzero"></path></g><path fill="#003eaa" d="M 30.476562 47.34375 L 44.746094 47.34375 C 47.058594 47.34375 48.941406 45.457031 48.941406 43.136719 L 48.941406 33.980469 C 48.941406 31.738281 47.179688 29.902344 44.96875 29.785156 L 44.96875 24.957031 C 44.96875 20.890625 41.667969 17.585938 37.609375 17.585938 C 33.554688 17.585938 30.253906 20.890625 30.253906 24.957031 L 30.253906 29.785156 C 28.042969 29.902344 26.277344 31.738281 26.277344 33.980469 L 26.277344 43.136719 C 26.277344 45.457031 28.160156 47.34375 30.476562 47.34375 Z M 33.214844 24.957031 C 33.214844 22.53125 35.1875 20.554688 37.609375 20.554688 C 40.035156 20.554688 42.003906 22.53125 42.003906 24.957031 L 42.003906 29.777344 L 33.214844 29.777344 Z M 29.242188 33.980469 C 29.242188 33.300781 29.792969 32.742188 30.476562 32.742188 L 44.746094 32.742188 C 45.425781 32.742188 45.980469 33.296875 45.980469 33.980469 L 45.980469 43.136719 C 45.980469 43.820312 45.425781 44.375 44.746094 44.375 L 30.476562 44.375 C 29.796875 44.375 29.242188 43.820312 29.242188 43.136719 Z M 29.242188 33.980469 " fill-opacity="1" fill-rule="nonzero"></path><path fill="#003eaa" d="M 36.128906 38.867188 L 36.128906 40.851562 C 36.128906 41.671875 36.792969 42.335938 37.613281 42.335938 C 38.429688 42.335938 39.09375 41.671875 39.09375 40.851562 L 39.09375 38.867188 C 39.628906 38.433594 39.976562 37.777344 39.976562 37.03125 C 39.976562 35.722656 38.917969 34.660156 37.613281 34.660156 C 36.304688 34.660156 35.246094 35.722656 35.246094 37.03125 C 35.246094 37.777344 35.59375 38.433594 36.128906 38.867188 Z M 36.128906 38.867188 " fill-opacity="1" fill-rule="nonzero"></path></svg>