<svg xmlns="http://www.w3.org/2000/svg" xmlns:xlink="http://www.w3.org/1999/xlink" width="100" viewBox="0 0 75 74.999997" height="100" preserveAspectRatio="xMidYMid meet"><defs><clipPath id="16310e2f54"><path d="M 13.324219 5.5625 L 52.570312 5.5625 L 52.570312 69.863281 L 13.324219 69.863281 Z M 13.324219 5.5625 " clip-rule="nonzero"></path></clipPath><clipPath id="766a5e1b7e"><path d="M 38 40 L 52.570312 40 L 52.570312 69.863281 L 38 69.863281 Z M 38 40 " clip-rule="nonzero"></path></clipPath></defs><rect x="-7.5" width="90" fill="#ffffff" y="-7.5" height="89.999996" fill-opacity="1"></rect><rect x="-7.5" width="90" fill="#ffffff" y="-7.5" height="89.999996" fill-opacity="1"></rect><g clip-path="url(#16310e2f54)"><path stroke-linecap="butt" transform="matrix(0.64, 0, 0, 0.645383, 13.322294, 4.940664)" fill="none" stroke-linejoin="miter" d="M 30.660971 60.218554 C 46.456872 60.218554 59.255946 47.417287 59.255946 31.62603 C 59.255946 15.834774 46.456872 3.033507 30.660971 3.033507 C 14.871174 3.033507 2.0721 15.834774 2.0721 31.62603 C 2.0721 47.417287 14.871174 60.218554 30.660971 60.218554 Z M 30.660971 60.218554 " stroke="#003eaa" stroke-width="4.124" stroke-opacity="1" stroke-miterlimit="10"></path></g><path fill="#003eaa" d="M 27.738281 27.191406 C 28.746094 27.191406 29.5625 26.367188 29.5625 25.351562 C 29.5625 24.335938 28.746094 23.515625 27.738281 23.515625 C 26.730469 23.515625 25.917969 24.335938 25.917969 25.351562 C 25.917969 26.367188 26.730469 27.191406 27.738281 27.191406 Z M 27.738281 27.191406 " fill-opacity="1" fill-rule="nonzero"></path><path fill="#003eaa" d="M 32.945312 27.191406 C 33.953125 27.191406 34.769531 26.367188 34.769531 25.351562 C 34.769531 24.335938 33.953125 23.515625 32.945312 23.515625 C 31.941406 23.515625 31.125 24.335938 31.125 25.351562 C 31.125 26.367188 31.941406 27.191406 32.945312 27.191406 Z M 32.945312 27.191406 " fill-opacity="1" fill-rule="nonzero"></path><path fill="#003eaa" d="M 38.152344 27.191406 C 39.160156 27.191406 39.976562 26.367188 39.976562 25.351562 C 39.976562 24.335938 39.160156 23.515625 38.152344 23.515625 C 37.148438 23.515625 36.332031 24.335938 36.332031 25.351562 C 36.332031 26.367188 37.148438 27.191406 38.152344 27.191406 Z M 38.152344 27.191406 " fill-opacity="1" fill-rule="nonzero"></path><g clip-path="url(#766a5e1b7e)"><path stroke-linecap="round" transform="matrix(0.64, 0, 0, 0.645383, 13.322294, 4.940664)" fill="none" stroke-linejoin="round" d="M 41.830406 57.8883 L 59.268153 98.900777 " stroke="#003eaa" stroke-width="4.124" stroke-opacity="1" stroke-miterlimit="4"></path></g></svg>