<svg xmlns="http://www.w3.org/2000/svg" xmlns:xlink="http://www.w3.org/1999/xlink" width="100" viewBox="0 0 75 74.999997" height="100" preserveAspectRatio="xMidYMid meet"><defs><clipPath id="baecacd577"><path d="M 29 4.308594 L 62.214844 4.308594 L 62.214844 50 L 29 50 Z M 29 4.308594 " clip-rule="nonzero"></path></clipPath><clipPath id="311c35e6a9"><path d="M 34 68 L 38 68 L 38 71.136719 L 34 71.136719 Z M 34 68 " clip-rule="nonzero"></path></clipPath><clipPath id="5891f5053c"><path d="M 12.222656 50 L 16 50 L 16 54 L 12.222656 54 Z M 12.222656 50 " clip-rule="nonzero"></path></clipPath><clipPath id="fa85a29239"><path d="M 12.222656 45 L 15 45 L 15 49 L 12.222656 49 Z M 12.222656 45 " clip-rule="nonzero"></path></clipPath><clipPath id="2a972a4662"><path d="M 12.222656 40 L 16 40 L 16 44 L 12.222656 44 Z M 12.222656 40 " clip-rule="nonzero"></path></clipPath></defs><rect x="-7.5" width="90" fill="#ffffff" y="-7.5" height="89.999996" fill-opacity="1"></rect><rect x="-7.5" width="90" fill="#ffffff" y="-7.5" height="89.999996" fill-opacity="1"></rect><rect x="-7.5" width="90" fill="#ffffff" y="-7.5" height="89.999996" fill-opacity="1"></rect><g clip-path="url(#baecacd577)"><path fill="#003eaa" d="M 45.519531 4.308594 C 36.371094 4.308594 29.011719 11.894531 29.011719 21.113281 C 29.011719 26.007812 33.070312 33.402344 36.558594 38.78125 C 38.824219 42.234375 40.804688 44.925781 41.839844 46.269531 C 44.578125 49.917969 44.859375 49.917969 45.519531 49.917969 C 46.179688 49.917969 46.367188 49.917969 49.386719 46.171875 C 50.332031 44.828125 52.40625 42.140625 54.667969 38.683594 C 58.160156 33.304688 62.214844 25.914062 62.214844 21.113281 C 62.027344 11.894531 54.574219 4.308594 45.519531 4.308594 Z M 45.425781 46.84375 C 42.21875 43.101562 31.464844 28.023438 31.464844 21.207031 C 31.464844 13.335938 37.785156 6.996094 45.425781 6.996094 C 53.066406 6.996094 59.386719 13.335938 59.386719 21.304688 C 59.386719 28.121094 48.539062 43.195312 45.425781 46.84375 Z M 45.425781 46.84375 " fill-opacity="1" fill-rule="nonzero"></path></g><path fill="#003eaa" d="M 45.425781 12.46875 C 41.371094 12.46875 38.164062 15.734375 38.164062 19.863281 C 38.164062 23.992188 41.371094 27.257812 45.425781 27.257812 C 49.480469 27.257812 52.6875 23.992188 52.6875 19.863281 C 52.6875 15.734375 49.480469 12.46875 45.425781 12.46875 Z M 45.425781 24.664062 C 42.785156 24.664062 40.710938 22.550781 40.710938 19.863281 C 40.710938 17.175781 42.785156 15.0625 45.425781 15.0625 C 48.066406 15.0625 50.140625 17.175781 50.140625 19.863281 C 50.140625 22.550781 48.066406 24.664062 45.425781 24.664062 Z M 45.425781 24.664062 " fill-opacity="1" fill-rule="nonzero"></path><path fill="#003eaa" d="M 59.386719 41.085938 C 58.726562 41.085938 58.253906 40.507812 58.160156 39.933594 C 58.160156 39.835938 58.066406 39.546875 58.066406 39.355469 C 58.066406 38.585938 58.632812 38.109375 59.292969 38.109375 C 59.953125 38.109375 60.421875 38.683594 60.519531 39.257812 C 60.519531 39.355469 60.613281 39.644531 60.613281 39.835938 C 60.613281 40.410156 60.046875 41.085938 59.386719 41.085938 Z M 59.386719 41.085938 " fill-opacity="1" fill-rule="nonzero"></path><path fill="#003eaa" d="M 59.859375 51.070312 L 59.671875 51.070312 C 58.914062 50.972656 58.539062 50.300781 58.632812 49.628906 C 58.632812 49.339844 58.726562 49.054688 58.726562 48.859375 C 58.820312 48.09375 59.480469 47.707031 60.140625 47.707031 C 60.894531 47.804688 61.367188 48.476562 61.273438 49.148438 C 61.273438 49.4375 61.179688 49.726562 61.179688 50.011719 C 61.085938 50.589844 60.519531 51.070312 59.859375 51.070312 Z M 59.859375 51.070312 " fill-opacity="1" fill-rule="nonzero"></path><path fill="#003eaa" d="M 60.140625 45.980469 C 59.386719 45.980469 58.914062 45.40625 58.914062 44.730469 C 58.914062 44.445312 58.914062 44.15625 58.820312 43.964844 C 58.726562 43.195312 59.292969 42.621094 59.953125 42.523438 C 60.707031 42.429688 61.273438 43.003906 61.367188 43.675781 C 61.367188 43.964844 61.460938 44.347656 61.460938 44.539062 C 61.460938 45.308594 60.992188 45.980469 60.140625 45.980469 Z M 60.140625 45.980469 " fill-opacity="1" fill-rule="nonzero"></path><g clip-path="url(#311c35e6a9)"><path fill="#003eaa" d="M 36.183594 71.136719 L 35.332031 71.136719 C 34.578125 71.042969 34.105469 70.464844 34.199219 69.792969 C 34.296875 69.023438 34.863281 68.546875 35.523438 68.640625 L 36.277344 68.640625 C 37.03125 68.640625 37.503906 69.3125 37.503906 69.984375 C 37.40625 70.5625 36.839844 71.136719 36.183594 71.136719 Z M 36.183594 71.136719 " fill-opacity="1" fill-rule="nonzero"></path></g><path fill="#003eaa" d="M 40.238281 70.847656 C 39.578125 70.847656 39.105469 70.367188 39.011719 69.792969 C 38.917969 69.023438 39.390625 68.449219 40.050781 68.351562 C 40.332031 68.351562 40.617188 68.257812 40.804688 68.257812 C 41.558594 68.160156 42.125 68.640625 42.3125 69.3125 C 42.410156 70.082031 41.9375 70.65625 41.277344 70.847656 C 40.992188 70.941406 40.332031 70.847656 40.238281 70.847656 Z M 40.238281 70.847656 " fill-opacity="1" fill-rule="nonzero"></path><path fill="#003eaa" d="M 31.277344 70.371094 L 30.996094 70.371094 C 30.710938 70.273438 30.429688 70.175781 30.144531 70.082031 C 29.390625 69.890625 29.109375 69.21875 29.296875 68.449219 C 29.484375 67.679688 30.144531 67.394531 30.902344 67.585938 C 31.183594 67.679688 31.464844 67.777344 31.65625 67.777344 C 32.410156 67.96875 32.691406 68.640625 32.597656 69.3125 C 32.316406 70.082031 31.75 70.371094 31.277344 70.371094 Z M 31.277344 70.371094 " fill-opacity="1" fill-rule="nonzero"></path><path fill="#003eaa" d="M 45.046875 69.699219 C 44.484375 69.699219 44.105469 69.3125 43.824219 68.929688 C 43.539062 68.257812 43.917969 67.488281 44.578125 67.199219 C 44.859375 67.105469 45.046875 67.007812 45.332031 66.914062 C 45.992188 66.625 46.746094 66.914062 47.03125 67.679688 C 47.3125 68.351562 47.03125 69.121094 46.273438 69.410156 C 45.992188 69.503906 45.707031 69.601562 45.519531 69.792969 C 45.425781 69.601562 45.238281 69.699219 45.046875 69.699219 Z M 45.046875 69.699219 " fill-opacity="1" fill-rule="nonzero"></path><path fill="#003eaa" d="M 26.65625 68.640625 C 26.46875 68.640625 26.277344 68.640625 26.089844 68.542969 C 25.808594 68.449219 25.523438 68.257812 25.335938 68.160156 C 24.675781 67.777344 24.488281 67.105469 24.769531 66.433594 C 25.148438 65.761719 25.808594 65.566406 26.46875 65.855469 C 26.75 65.953125 26.9375 66.144531 27.222656 66.242188 C 27.882812 66.625 28.070312 67.296875 27.882812 67.96875 C 27.503906 68.449219 27.035156 68.640625 26.65625 68.640625 Z M 26.65625 68.640625 " fill-opacity="1" fill-rule="nonzero"></path><path fill="#003eaa" d="M 49.480469 67.394531 C 49.011719 67.394531 48.726562 67.199219 48.445312 66.722656 C 48.066406 66.050781 48.257812 65.28125 48.820312 64.898438 C 49.011719 64.703125 49.292969 64.609375 49.480469 64.417969 C 50.140625 63.9375 50.898438 64.128906 51.273438 64.800781 C 51.746094 65.472656 51.558594 66.242188 50.898438 66.625 C 50.613281 66.816406 50.425781 67.007812 50.140625 67.105469 C 49.953125 67.296875 49.765625 67.394531 49.480469 67.394531 Z M 49.480469 67.394531 " fill-opacity="1" fill-rule="nonzero"></path><path fill="#003eaa" d="M 22.410156 66.046875 C 22.128906 66.046875 21.84375 65.953125 21.65625 65.761719 C 21.375 65.566406 21.183594 65.375 20.902344 65.183594 C 20.335938 64.703125 20.242188 63.9375 20.714844 63.359375 C 21.183594 62.785156 21.941406 62.6875 22.503906 63.167969 C 22.695312 63.359375 22.976562 63.550781 23.164062 63.742188 C 23.730469 64.222656 23.828125 64.992188 23.355469 65.566406 C 23.164062 65.855469 22.789062 66.046875 22.410156 66.046875 Z M 22.410156 66.046875 " fill-opacity="1" fill-rule="nonzero"></path><path fill="#003eaa" d="M 53.347656 64.222656 C 52.972656 64.222656 52.6875 64.128906 52.5 63.839844 C 51.933594 63.265625 51.933594 62.496094 52.5 62.015625 L 53.066406 61.441406 C 53.539062 60.863281 54.386719 60.863281 54.859375 61.34375 C 55.425781 61.824219 55.425781 62.6875 54.953125 63.167969 L 54.292969 63.839844 C 54.007812 64.03125 53.632812 64.222656 53.347656 64.222656 Z M 53.347656 64.222656 " fill-opacity="1" fill-rule="nonzero"></path><path fill="#003eaa" d="M 18.921875 62.496094 C 18.542969 62.496094 18.167969 62.304688 17.976562 62.015625 C 17.789062 61.726562 17.601562 61.535156 17.410156 61.246094 C 16.941406 60.671875 17.035156 59.902344 17.695312 59.421875 C 18.261719 58.941406 19.015625 59.039062 19.488281 59.710938 C 19.675781 59.902344 19.863281 60.191406 19.957031 60.382812 C 20.429688 60.960938 20.335938 61.726562 19.769531 62.207031 C 19.394531 62.398438 19.203125 62.496094 18.921875 62.496094 Z M 18.921875 62.496094 " fill-opacity="1" fill-rule="nonzero"></path><path fill="#003eaa" d="M 56.554688 60.382812 C 56.273438 60.382812 56.085938 60.289062 55.800781 60.191406 C 55.140625 59.808594 55.046875 59.039062 55.425781 58.367188 C 55.613281 58.175781 55.707031 57.886719 55.894531 57.695312 C 56.273438 57.023438 57.027344 56.925781 57.6875 57.214844 C 58.347656 57.503906 58.441406 58.367188 58.160156 59.039062 C 57.972656 59.328125 57.875 59.617188 57.6875 59.808594 C 57.3125 60.09375 56.839844 60.382812 56.554688 60.382812 Z M 56.554688 60.382812 " fill-opacity="1" fill-rule="nonzero"></path><path fill="#003eaa" d="M 16.089844 58.367188 C 15.621094 58.367188 15.242188 58.078125 14.960938 57.597656 C 14.769531 57.308594 14.675781 57.023438 14.582031 56.832031 C 14.296875 56.160156 14.582031 55.390625 15.242188 55.101562 C 15.902344 54.8125 16.65625 55.101562 16.941406 55.773438 C 17.035156 56.0625 17.222656 56.253906 17.316406 56.542969 C 17.695312 57.214844 17.410156 57.984375 16.75 58.269531 C 16.46875 58.269531 16.28125 58.367188 16.089844 58.367188 Z M 16.089844 58.367188 " fill-opacity="1" fill-rule="nonzero"></path><path fill="#003eaa" d="M 58.726562 55.871094 C 58.539062 55.871094 58.445312 55.871094 58.253906 55.773438 C 57.59375 55.488281 57.3125 54.816406 57.5 54.046875 C 57.59375 53.757812 57.6875 53.566406 57.785156 53.277344 C 58.066406 52.511719 58.726562 52.222656 59.386719 52.511719 C 60.140625 52.796875 60.425781 53.46875 60.140625 54.140625 C 60.046875 54.429688 59.953125 54.71875 59.859375 54.910156 C 59.667969 55.582031 59.292969 55.871094 58.726562 55.871094 Z M 58.726562 55.871094 " fill-opacity="1" fill-rule="nonzero"></path><g clip-path="url(#5891f5053c)"><path fill="#003eaa" d="M 14.300781 53.660156 C 13.734375 53.660156 13.261719 53.277344 13.074219 52.703125 C 12.980469 52.414062 12.882812 52.125 12.882812 51.835938 C 12.695312 51.070312 13.167969 50.398438 13.828125 50.300781 C 14.582031 50.109375 15.242188 50.589844 15.335938 51.261719 C 15.429688 51.550781 15.429688 51.835938 15.527344 52.03125 C 15.714844 52.796875 15.335938 53.46875 14.675781 53.660156 Z M 14.300781 53.660156 " fill-opacity="1" fill-rule="nonzero"></path></g><g clip-path="url(#fa85a29239)"><path fill="#003eaa" d="M 13.449219 48.667969 C 12.695312 48.667969 12.222656 48.09375 12.222656 47.421875 L 12.222656 46.558594 C 12.222656 45.789062 12.789062 45.210938 13.449219 45.210938 C 14.109375 45.210938 14.769531 45.789062 14.769531 46.460938 L 14.769531 47.230469 C 14.769531 47.996094 14.300781 48.667969 13.449219 48.667969 Z M 13.449219 48.667969 " fill-opacity="1" fill-rule="nonzero"></path></g><g clip-path="url(#2a972a4662)"><path fill="#003eaa" d="M 13.734375 43.578125 L 13.542969 43.578125 C 12.789062 43.484375 12.414062 42.8125 12.507812 42.140625 C 12.507812 41.851562 12.601562 41.5625 12.695312 41.277344 C 12.789062 40.507812 13.449219 40.125 14.203125 40.316406 C 14.960938 40.410156 15.335938 41.082031 15.242188 41.851562 C 15.148438 42.140625 15.148438 42.425781 15.148438 42.621094 C 14.863281 43.195312 14.394531 43.578125 13.734375 43.578125 Z M 13.734375 43.578125 " fill-opacity="1" fill-rule="nonzero"></path></g><path fill="#003eaa" d="M 14.960938 38.777344 C 14.769531 38.777344 14.675781 38.777344 14.488281 38.683594 C 13.828125 38.394531 13.542969 37.722656 13.734375 36.953125 C 13.828125 36.667969 13.921875 36.378906 14.109375 36.1875 C 14.394531 35.515625 15.148438 35.226562 15.808594 35.417969 C 16.46875 35.609375 16.75 36.472656 16.5625 37.148438 C 16.46875 37.433594 16.375 37.625 16.28125 37.914062 C 15.996094 38.492188 15.523438 38.777344 14.960938 38.777344 Z M 14.960938 38.777344 " fill-opacity="1" fill-rule="nonzero"></path><path fill="#003eaa" d="M 17.222656 34.265625 C 16.941406 34.265625 16.753906 34.171875 16.46875 34.074219 C 15.808594 33.691406 15.714844 32.921875 16.089844 32.25 C 16.28125 31.960938 16.46875 31.769531 16.65625 31.480469 C 17.128906 30.808594 17.882812 30.714844 18.449219 31.195312 C 19.109375 31.675781 19.203125 32.441406 18.734375 33.019531 C 18.542969 33.210938 18.449219 33.5 18.261719 33.691406 C 18.074219 34.074219 17.695312 34.265625 17.222656 34.265625 Z M 17.222656 34.265625 " fill-opacity="1" fill-rule="nonzero"></path><path fill="#003eaa" d="M 20.429688 30.425781 C 20.054688 30.425781 19.769531 30.328125 19.582031 30.042969 C 19.015625 29.464844 19.015625 28.699219 19.582031 28.21875 L 20.242188 27.546875 C 20.808594 27.066406 21.5625 27.066406 22.035156 27.640625 C 22.507812 28.21875 22.507812 28.984375 21.941406 29.464844 L 21.375 30.042969 C 20.996094 30.328125 20.710938 30.425781 20.429688 30.425781 Z M 20.429688 30.425781 " fill-opacity="1" fill-rule="nonzero"></path><path fill="#003eaa" d="M 24.109375 27.351562 C 23.730469 27.351562 23.449219 27.257812 23.261719 26.96875 C 22.695312 26.394531 22.695312 25.625 23.261719 25.144531 C 23.355469 25.046875 23.542969 24.953125 23.636719 24.855469 C 24.203125 24.28125 24.957031 24.28125 25.429688 24.855469 C 25.996094 25.433594 25.996094 26.199219 25.429688 26.679688 C 25.335938 26.777344 25.144531 26.871094 25.050781 26.96875 C 24.769531 27.160156 24.484375 27.351562 24.109375 27.351562 Z M 24.109375 27.351562 " fill-opacity="1" fill-rule="nonzero"></path></svg>