<svg xmlns="http://www.w3.org/2000/svg" xmlns:xlink="http://www.w3.org/1999/xlink" width="100" viewBox="0 0 75 74.999997" height="100" preserveAspectRatio="xMidYMid meet"><defs><clipPath id="86f902df70"><path d="M 6.390625 7.425781 L 68.28125 7.425781 L 68.28125 67.574219 L 6.390625 67.574219 Z M 6.390625 7.425781 " clip-rule="nonzero"></path></clipPath></defs><rect x="-7.5" width="90" fill="#ffffff" y="-7.5" height="89.999996" fill-opacity="1"></rect><rect x="-7.5" width="90" fill="#ffffff" y="-7.5" height="89.999996" fill-opacity="1"></rect><g clip-path="url(#86f902df70)"><path fill="#003eaa" d="M 64.703125 47.957031 C 65.164062 46.511719 65.585938 44.515625 65.847656 43.117188 C 66.191406 41.285156 66.375 39.40625 66.375 37.5 C 66.375 29.195312 63.015625 21.675781 57.589844 16.234375 C 52.160156 10.792969 44.664062 7.425781 36.382812 7.425781 C 28.101562 7.425781 20.601562 10.792969 15.175781 16.234375 C 9.746094 21.675781 6.390625 29.195312 6.390625 37.5 C 6.390625 45.800781 9.746094 53.320312 15.175781 58.761719 C 20.601562 64.207031 28.101562 67.574219 36.382812 67.574219 C 38.644531 67.574219 40.867188 67.316406 43.011719 66.832031 C 44.8125 66.421875 46.554688 65.847656 48.222656 65.128906 C 48.722656 65.339844 49.269531 65.457031 49.839844 65.457031 L 64.089844 65.457031 C 66.398438 65.457031 68.28125 63.570312 68.28125 61.253906 L 68.28125 52.109375 C 68.28125 50 66.722656 48.257812 64.703125 47.957031 Z M 8.992188 37.5 C 8.992188 29.917969 12.058594 23.050781 17.011719 18.082031 C 21.96875 13.113281 28.816406 10.035156 36.378906 10.035156 C 43.941406 10.035156 50.792969 13.113281 55.746094 18.078125 C 60.703125 23.050781 63.769531 29.917969 63.769531 37.5 C 63.769531 38.367188 63.730469 39.21875 63.652344 40.054688 C 62.496094 37.507812 59.933594 35.730469 56.964844 35.730469 C 53.042969 35.730469 49.828125 38.832031 49.628906 42.71875 C 49.554688 42.65625 49.480469 42.59375 49.40625 42.53125 L 49.328125 42.472656 C 48.527344 41.824219 47.679688 41.234375 46.789062 40.710938 C 48.367188 38.5625 49.296875 35.910156 49.296875 33.042969 C 49.296875 29.46875 47.851562 26.226562 45.511719 23.886719 C 43.175781 21.542969 39.945312 20.089844 36.382812 20.089844 C 32.816406 20.089844 29.585938 21.539062 27.25 23.886719 C 24.914062 26.234375 23.464844 29.46875 23.464844 33.039062 C 23.464844 35.910156 24.394531 38.5625 25.972656 40.707031 C 23.109375 42.390625 20.691406 44.75 18.929688 47.5625 C 17.394531 50.015625 16.359375 52.808594 15.964844 55.804688 C 11.628906 50.945312 8.992188 44.53125 8.992188 37.5 Z M 61.351562 43.097656 L 61.351562 47.910156 L 52.578125 47.910156 L 52.578125 43.097656 C 52.578125 40.671875 54.546875 38.699219 56.964844 38.699219 C 59.382812 38.699219 61.351562 40.671875 61.351562 43.097656 Z M 43.671875 25.730469 C 45.539062 27.601562 46.691406 30.183594 46.691406 33.039062 C 46.691406 35.898438 45.539062 38.480469 43.671875 40.351562 L 43.617188 40.414062 C 41.753906 42.246094 39.199219 43.378906 36.382812 43.378906 C 33.566406 43.378906 30.957031 42.222656 29.089844 40.351562 C 27.226562 38.480469 26.074219 35.898438 26.074219 33.039062 C 26.074219 30.183594 27.222656 27.597656 29.089844 25.730469 C 30.957031 23.859375 33.535156 22.703125 36.382812 22.703125 C 39.230469 22.703125 41.808594 23.859375 43.671875 25.730469 Z M 42.441406 64.292969 C 40.503906 64.730469 38.476562 64.960938 36.378906 64.960938 C 29.496094 64.960938 23.207031 62.414062 18.394531 58.210938 C 18.453125 54.808594 19.449219 51.636719 21.128906 48.953125 C 22.765625 46.335938 25.054688 44.171875 27.761719 42.6875 C 30.046875 44.742188 33.070312 45.996094 36.382812 45.996094 C 39.695312 45.996094 42.710938 44.742188 45 42.6875 C 45.953125 43.207031 46.855469 43.816406 47.691406 44.496094 L 47.757812 44.554688 C 48.421875 45.097656 49.042969 45.683594 49.617188 46.3125 L 49.617188 47.921875 C 47.410156 48.035156 45.648438 49.871094 45.648438 52.109375 L 45.648438 61.257812 C 45.648438 61.949219 45.820312 62.605469 46.117188 63.183594 C 44.929688 63.636719 43.703125 64.007812 42.441406 64.292969 Z M 65.320312 61.253906 C 65.320312 61.9375 64.765625 62.492188 64.085938 62.492188 L 49.839844 62.492188 C 49.160156 62.492188 48.605469 61.9375 48.605469 61.253906 L 48.605469 52.109375 C 48.605469 51.429688 49.160156 50.875 49.839844 50.875 L 64.085938 50.875 C 64.765625 50.875 65.320312 51.429688 65.320312 52.109375 Z M 65.320312 61.253906 " fill-opacity="1" fill-rule="nonzero"></path></g><path fill="#003eaa" d="M 56.964844 52.847656 C 55.660156 52.847656 54.601562 53.910156 54.601562 55.21875 C 54.601562 55.960938 54.953125 56.617188 55.488281 57.050781 L 55.488281 59.03125 C 55.488281 59.851562 56.148438 60.515625 56.964844 60.515625 C 57.78125 60.515625 58.445312 59.851562 58.445312 59.03125 L 58.445312 57.050781 C 58.980469 56.617188 59.328125 55.960938 59.328125 55.21875 C 59.328125 53.910156 58.269531 52.847656 56.964844 52.847656 Z M 56.964844 52.847656 " fill-opacity="1" fill-rule="nonzero"></path></svg>