<svg xmlns="http://www.w3.org/2000/svg" xmlns:xlink="http://www.w3.org/1999/xlink" width="100" viewBox="0 0 75 74.999997" height="100" preserveAspectRatio="xMidYMid meet"><defs><clipPath id="5ce639233a"><path d="M 44 51 L 64 51 L 64 69.996094 L 44 69.996094 Z M 44 51 " clip-rule="nonzero"></path></clipPath><clipPath id="45e93639cb"><path d="M 8.367188 5.394531 L 33 5.394531 L 33 38 L 8.367188 38 Z M 8.367188 5.394531 " clip-rule="nonzero"></path></clipPath><clipPath id="67754e34af"><path d="M 8.367188 5.394531 L 67.125 5.394531 L 67.125 55 L 8.367188 55 Z M 8.367188 5.394531 " clip-rule="nonzero"></path></clipPath><clipPath id="7ae281cd9f"><path d="M 8.367188 5.394531 L 67.125 5.394531 L 67.125 57 L 8.367188 57 Z M 8.367188 5.394531 " clip-rule="nonzero"></path></clipPath><clipPath id="dcf184c6ac"><path d="M 8.367188 5.394531 L 67.125 5.394531 L 67.125 61 L 8.367188 61 Z M 8.367188 5.394531 " clip-rule="nonzero"></path></clipPath><clipPath id="d712fcbb7b"><path d="M 49 49 L 67.125 49 L 67.125 65 L 49 65 Z M 49 49 " clip-rule="nonzero"></path></clipPath></defs><rect x="-7.5" width="90" fill="#ffffff" y="-7.5" height="89.999996" fill-opacity="1"></rect><rect x="-7.5" width="90" fill="#ffffff" y="-7.5" height="89.999996" fill-opacity="1"></rect><g clip-path="url(#5ce639233a)"><path stroke-linecap="round" transform="matrix(0.644008, 0, 0, 0.64604, 7.904553, 5.009281)" fill="none" stroke-linejoin="round" d="M 71.909517 98.482413 C 78.727175 98.482413 84.246809 92.961998 84.246809 86.147641 C 84.246809 79.333285 78.727175 73.806823 71.909517 73.806823 C 65.091859 73.806823 59.572225 79.333285 59.572225 86.147641 C 59.572225 92.961998 65.091859 98.482413 71.909517 98.482413 Z M 71.909517 98.482413 " stroke="#003eaa" stroke-width="4.221" stroke-opacity="1" stroke-miterlimit="4"></path></g><g clip-path="url(#45e93639cb)"><path fill="#003eaa" d="M 12.90625 37.613281 L 28.339844 37.613281 C 30.84375 37.613281 32.882812 35.570312 32.882812 33.058594 L 32.882812 23.144531 C 32.882812 20.714844 30.972656 18.730469 28.582031 18.605469 L 28.582031 13.378906 C 28.582031 8.976562 25.011719 5.394531 20.625 5.394531 C 16.234375 5.394531 12.664062 8.976562 12.664062 13.378906 L 12.664062 18.605469 C 10.273438 18.730469 8.367188 20.71875 8.367188 23.144531 L 8.367188 33.058594 C 8.367188 35.570312 10.402344 37.613281 12.90625 37.613281 Z M 15.871094 13.378906 C 15.871094 10.746094 18.003906 8.609375 20.625 8.609375 C 23.246094 8.609375 25.375 10.746094 25.375 13.378906 L 25.375 18.59375 L 15.871094 18.59375 Z M 11.570312 23.148438 C 11.570312 22.410156 12.167969 21.808594 12.90625 21.808594 L 28.339844 21.808594 C 29.078125 21.808594 29.675781 22.40625 29.675781 23.148438 L 29.675781 33.0625 C 29.675781 33.796875 29.078125 34.398438 28.339844 34.398438 L 12.90625 34.398438 C 12.171875 34.398438 11.570312 33.796875 11.570312 33.0625 Z M 19.019531 28.503906 L 19.019531 30.652344 C 19.019531 31.539062 19.738281 32.257812 20.625 32.257812 C 21.507812 32.257812 22.226562 31.539062 22.226562 30.652344 L 22.226562 28.503906 C 22.804688 28.03125 23.183594 27.324219 23.183594 26.515625 C 23.183594 25.097656 22.039062 23.949219 20.625 23.949219 C 19.210938 23.949219 18.0625 25.097656 18.0625 26.515625 C 18.0625 27.324219 18.441406 28.035156 19.019531 28.503906 Z M 19.019531 28.503906 " fill-opacity="1" fill-rule="nonzero"></path></g><g clip-path="url(#67754e34af)"><path stroke-linecap="round" transform="matrix(0.644008, 0, 0, 0.64604, 7.904553, 5.009281)" fill="none" stroke-linejoin="miter" d="M 36.080419 16.583158 L 41.345301 3.522812 " stroke="#003eaa" stroke-width="4.221" stroke-opacity="1" stroke-miterlimit="10"></path></g><g clip-path="url(#7ae281cd9f)"><path stroke-linecap="round" transform="matrix(0.644008, 0, 0, 0.64604, 7.904553, 5.009281)" fill="none" stroke-linejoin="miter" d="M 40.756944 20.126381 L 51.832606 11.419484 " stroke="#003eaa" stroke-width="4.221" stroke-opacity="1" stroke-miterlimit="10"></path></g><g clip-path="url(#dcf184c6ac)"><path stroke-linecap="round" transform="matrix(0.644008, 0, 0, 0.64604, 7.904553, 5.009281)" fill="none" stroke-linejoin="miter" d="M 42.327917 26.094234 L 56.036019 22.865426 " stroke="#003eaa" stroke-width="4.221" stroke-opacity="1" stroke-miterlimit="10"></path></g><path stroke-linecap="round" transform="matrix(0.644008, 0, 0, 0.64604, 7.904553, 5.009281)" fill="none" stroke-linejoin="round" d="M 44.735933 36.028562 L 73.619997 36.028562 L 73.619997 64.912486 " stroke="#003eaa" stroke-width="4.221" stroke-opacity="1" stroke-miterlimit="4"></path><path stroke-linecap="round" transform="matrix(0.644008, 0, 0, 0.64604, 7.904553, 5.009281)" fill="none" stroke-linejoin="round" d="M 50.025077 85.065325 L 21.141014 85.065325 L 21.141014 56.181402 " stroke="#003eaa" stroke-width="4.221" stroke-opacity="1" stroke-miterlimit="4"></path><g clip-path="url(#d712fcbb7b)"><path stroke-linecap="round" transform="matrix(0.644008, 0, 0, 0.64604, 7.904553, 5.009281)" fill="none" stroke-linejoin="round" d="M 67.184467 85.071372 L 72.133941 90.670391 L 89.845295 70.626387 " stroke="#003eaa" stroke-width="4.221" stroke-opacity="1" stroke-miterlimit="4"></path></g></svg>