<svg xmlns="http://www.w3.org/2000/svg" xmlns:xlink="http://www.w3.org/1999/xlink" width="100" viewBox="0 0 75 74.999997" height="100" preserveAspectRatio="xMidYMid meet"><defs><clipPath id="ce01ed6f30"><path d="M 4.832031 4.746094 L 70.179688 4.746094 L 70.179688 70.09375 L 4.832031 70.09375 Z M 4.832031 4.746094 " clip-rule="nonzero"></path></clipPath><clipPath id="f4f2f787c8"><path d="M 4.832031 4.746094 L 51 4.746094 L 51 51 L 4.832031 51 Z M 4.832031 4.746094 " clip-rule="nonzero"></path></clipPath><clipPath id="e19fd460ba"><path d="M 4.832031 4.746094 L 26 4.746094 L 26 26 L 4.832031 26 Z M 4.832031 4.746094 " clip-rule="nonzero"></path></clipPath><clipPath id="c1e565f8e8"><path d="M 24 24 L 70.179688 24 L 70.179688 70.09375 L 24 70.09375 Z M 24 24 " clip-rule="nonzero"></path></clipPath><clipPath id="94bdd18bfb"><path d="M 49 49 L 70.179688 49 L 70.179688 70.09375 L 49 70.09375 Z M 49 49 " clip-rule="nonzero"></path></clipPath></defs><rect x="-7.5" width="90" fill="#ffffff" y="-7.5" height="89.999996" fill-opacity="1"></rect><rect x="-7.5" width="90" fill="#ffffff" y="-7.5" height="89.999996" fill-opacity="1"></rect><rect x="-7.5" width="90" fill="#ffffff" y="-7.5" height="89.999996" fill-opacity="1"></rect><path fill="#003eaa" d="M 31.972656 49.492188 L 43.714844 49.492188 C 45.621094 49.492188 47.167969 47.945312 47.167969 46.039062 L 47.167969 38.523438 C 47.167969 36.679688 45.71875 35.171875 43.898438 35.078125 L 43.898438 31.113281 C 43.898438 27.773438 41.179688 25.058594 37.84375 25.058594 C 34.503906 25.058594 31.789062 27.773438 31.789062 31.113281 L 31.789062 35.078125 C 29.96875 35.171875 28.519531 36.679688 28.519531 38.523438 L 28.519531 46.039062 C 28.519531 47.945312 30.066406 49.492188 31.972656 49.492188 Z M 34.226562 31.113281 C 34.226562 29.117188 35.847656 27.496094 37.84375 27.496094 C 39.835938 27.496094 41.457031 29.117188 41.457031 31.113281 L 41.457031 35.070312 L 34.226562 35.070312 Z M 30.957031 38.523438 C 30.957031 37.960938 31.410156 37.507812 31.972656 37.507812 L 43.714844 37.507812 C 44.273438 37.507812 44.730469 37.960938 44.730469 38.523438 L 44.730469 46.039062 C 44.730469 46.597656 44.273438 47.054688 43.714844 47.054688 L 31.972656 47.054688 C 31.410156 47.054688 30.957031 46.597656 30.957031 46.039062 Z M 36.625 42.582031 L 36.625 44.210938 C 36.625 44.886719 37.171875 45.429688 37.84375 45.429688 C 38.515625 45.429688 39.0625 44.886719 39.0625 44.210938 L 39.0625 42.582031 C 39.503906 42.226562 39.789062 41.6875 39.789062 41.078125 C 39.789062 40.003906 38.917969 39.128906 37.84375 39.128906 C 36.765625 39.128906 35.894531 40.003906 35.894531 41.078125 C 35.894531 41.6875 36.183594 42.226562 36.625 42.582031 Z M 36.625 42.582031 " fill-opacity="1" fill-rule="nonzero"></path><g clip-path="url(#ce01ed6f30)"><path stroke-linecap="butt" transform="matrix(0.653465, 0, 0, 0.653465, 4.35857, 4.358567)" fill="none" stroke-linejoin="miter" d="M 51.242475 83.187556 C 69.367002 83.187556 84.054325 68.500233 84.054325 50.375705 C 84.054325 32.251178 69.367002 17.557878 51.242475 17.557878 C 33.117948 17.557878 18.424647 32.251178 18.424647 50.375705 C 18.424647 68.500233 33.117948 83.187556 51.242475 83.187556 Z M 51.242475 83.187556 " stroke="#003eaa" stroke-width="3.075" stroke-opacity="1" stroke-miterlimit="10"></path></g><g clip-path="url(#f4f2f787c8)"><path stroke-linecap="butt" transform="matrix(0.653465, 0, 0, 0.653465, 4.35857, 4.358567)" fill="none" stroke-linejoin="miter" d="M 27.672221 27.540714 L 9.82267 9.691163 " stroke="#003eaa" stroke-width="3.075" stroke-opacity="1" stroke-miterlimit="10"></path></g><path fill="#ffffff" d="M 15.960938 7.253906 C 13.578125 4.871094 9.71875 4.871094 7.339844 7.253906 C 4.957031 9.632812 4.957031 13.496094 7.339844 15.875 C 9.71875 18.257812 13.578125 18.257812 15.960938 15.875 C 18.34375 13.496094 18.34375 9.632812 15.960938 7.253906 Z M 15.960938 7.253906 " fill-opacity="1" fill-rule="nonzero"></path><g clip-path="url(#e19fd460ba)"><path stroke-linecap="butt" transform="matrix(0.653465, 0, 0, 0.653465, 4.35857, 4.358567)" fill="none" stroke-linejoin="miter" d="M 17.755139 4.430746 C 14.108714 0.784321 8.202701 0.784321 4.562253 4.430746 C 0.915828 8.071194 0.915828 13.983185 4.562253 17.623633 C 8.202701 21.270058 14.108714 21.270058 17.755139 17.623633 C 21.401565 13.983185 21.401565 8.071194 17.755139 4.430746 Z M 17.755139 4.430746 " stroke="#003eaa" stroke-width="2" stroke-opacity="1" stroke-miterlimit="4"></path></g><path fill="#003eaa" d="M 16.011719 7.203125 C 18.414062 9.609375 18.414062 13.519531 16.011719 15.925781 C 13.605469 18.328125 9.695312 18.328125 7.289062 15.925781 C 4.886719 13.519531 4.886719 9.609375 7.289062 7.203125 C 9.695312 4.800781 13.605469 4.800781 16.011719 7.203125 C 18.414062 9.609375 13.605469 4.800781 16.011719 7.203125 Z M 8.3125 14.902344 C 10.152344 16.742188 13.144531 16.742188 14.988281 14.902344 C 16.828125 13.058594 16.828125 10.066406 14.988281 8.226562 C 13.144531 6.386719 10.152344 6.386719 8.3125 8.226562 C 6.472656 10.066406 6.472656 13.0625 8.3125 14.902344 C 10.152344 16.742188 6.472656 13.058594 8.3125 14.902344 Z M 8.3125 14.902344 " fill-opacity="1" fill-rule="nonzero"></path><g clip-path="url(#c1e565f8e8)"><path stroke-linecap="butt" transform="matrix(0.653465, 0, 0, 0.653465, 4.35857, 4.358567)" fill="none" stroke-linejoin="miter" d="M 74.191043 74.059537 L 90.629846 90.49834 " stroke="#003eaa" stroke-width="3.075" stroke-opacity="1" stroke-miterlimit="10"></path></g><path fill="#ffffff" d="M 59.050781 58.964844 C 56.671875 61.347656 56.671875 65.207031 59.050781 67.589844 C 61.433594 69.96875 65.292969 69.96875 67.675781 67.589844 C 70.054688 65.207031 70.054688 61.347656 67.675781 58.964844 C 65.292969 56.585938 61.433594 56.585938 59.050781 58.964844 Z M 59.050781 58.964844 " fill-opacity="1" fill-rule="nonzero"></path><g clip-path="url(#94bdd18bfb)"><path stroke-linecap="butt" transform="matrix(0.653465, 0, 0, 0.653465, 4.35857, 4.358567)" fill="none" stroke-linejoin="miter" d="M 83.69566 83.564154 C 80.055213 87.210579 80.055213 93.116592 83.69566 96.763018 C 87.342086 100.403465 93.248099 100.403465 96.894524 96.763018 C 100.534972 93.116592 100.534972 87.210579 96.894524 83.564154 C 93.248099 79.923706 87.342086 79.923706 83.69566 83.564154 Z M 83.69566 83.564154 " stroke="#003eaa" stroke-width="2" stroke-opacity="1" stroke-miterlimit="4"></path></g><path fill="#003eaa" d="M 59.003906 67.636719 C 56.597656 65.234375 56.597656 61.320312 59.003906 58.917969 C 61.40625 56.511719 65.320312 56.511719 67.722656 58.917969 C 70.128906 61.320312 70.128906 65.234375 67.722656 67.636719 C 65.320312 70.042969 61.40625 70.042969 59.003906 67.636719 C 61.40625 70.042969 56.597656 65.234375 59.003906 67.636719 Z M 66.699219 59.941406 C 64.859375 58.097656 61.867188 58.097656 60.027344 59.941406 C 58.1875 61.78125 58.1875 64.773438 60.027344 66.613281 C 61.867188 68.453125 64.859375 68.453125 66.699219 66.613281 C 68.539062 64.773438 68.539062 61.777344 66.699219 59.941406 C 68.539062 61.78125 64.859375 58.097656 66.699219 59.941406 Z M 66.699219 59.941406 " fill-opacity="1" fill-rule="nonzero"></path></svg>