<svg xmlns="http://www.w3.org/2000/svg" xmlns:xlink="http://www.w3.org/1999/xlink" width="500" viewBox="0 0 375 374.999991" height="500" preserveAspectRatio="xMidYMid meet"><path stroke-linecap="butt" transform="matrix(1.688666, 0, 0, 1.688469, -30.971427, -152.607367)" fill="none" stroke-linejoin="miter" d="M 44.989021 146.919098 C 43.950387 146.720138 42.879367 146.939919 42.009598 147.539112 C 41.139828 148.129051 40.540705 149.049819 40.339455 150.090888 L 36.989918 167.671073 C 36.580479 169.829556 37.989227 171.909381 40.149772 172.318868 L 46.939062 173.619048 C 47.260599 177.32988 48.019334 180.989816 49.210641 184.541018 L 43.490056 188.42999 C 42.620287 189.019929 42.009598 189.940696 41.819914 190.979452 C 41.620977 192.020521 41.840733 193.089352 42.439856 193.959223 L 52.500035 208.760911 C 53.089905 209.630782 54.010565 210.229975 55.039947 210.428935 C 56.080894 210.630208 57.1496 210.410427 58.01937 209.80892 L 63.739954 205.919949 C 66.59909 208.330602 69.719619 210.380351 73.050651 212.050689 L 71.759876 218.840772 C 71.350437 220.999255 72.759186 223.07908 74.91973 223.490881 L 92.500176 226.840809 C 92.750003 226.889393 92.999831 226.910214 93.249658 226.910214 C 95.12105 226.910214 96.788879 225.579959 97.149741 223.669019 L 98.449769 216.878936 C 102.160168 216.559674 105.810424 215.800851 109.370464 214.609405 L 113.258981 220.330658 C 113.851165 221.200529 114.769512 221.799722 115.810459 222.000995 C 116.849093 222.199955 117.920113 221.980174 118.789882 221.380981 L 133.589842 211.319627 C 135.410343 210.079598 135.879926 207.611108 134.649295 205.790394 L 130.760778 200.069141 C 133.180402 197.209672 135.229912 194.091092 136.890802 190.759671 L 143.680092 192.050596 C 145.829071 192.460083 147.920218 191.039603 148.329658 188.890373 L 151.679195 171.310188 C 151.880445 170.269119 151.660689 169.200288 151.059253 168.330417 C 150.469383 167.460546 149.551036 166.859039 148.510089 166.66008 L 141.730051 165.369154 C 141.410827 161.660635 140.649779 158.000699 139.460785 154.449497 L 145.179057 150.560526 C 146.999558 149.320497 147.469141 146.849693 146.240823 145.028979 L 136.180644 130.229604 C 135.579208 129.359733 134.670114 128.76054 133.629166 128.559267 C 132.599785 128.360307 131.519513 128.580088 130.649743 129.179281 L 124.929159 133.070566 C 122.070023 130.659913 118.949494 128.610164 115.620775 126.939826 L 116.920803 120.149743 C 117.330242 117.988946 115.909927 115.909122 113.760949 115.499635 L 96.180503 112.140452 C 95.139556 111.939179 94.07085 112.15896 93.20108 112.760466 C 92.328998 113.359659 91.720622 114.26886 91.530938 115.309929 L 90.240163 122.100012 C 86.529764 122.419273 82.870255 123.18041 79.319468 124.369543 L 75.430951 118.650603 C 74.829514 117.780732 73.92042 117.179226 72.879473 116.980266 C 71.840839 116.778993 70.769819 117.001087 69.90005 117.60028 L 55.10009 127.659321 C 54.230321 128.24926 53.628885 129.170028 53.429948 130.199529 C 53.231011 131.240598 53.450767 132.309429 54.040637 133.1793 L 57.929154 138.900553 C 55.521096 141.760022 53.46002 144.880916 51.79913 148.210023 L 45.00984 146.919098 Z M 44.989021 146.919098 " stroke="#1d4798" stroke-width="4" stroke-opacity="1" stroke-miterlimit="10"></path><path stroke-linecap="butt" transform="matrix(1.688666, 0, 0, 1.688469, -30.971427, -152.607367)" fill="none" stroke-linejoin="miter" d="M 88.960954 197.589083 C 90.76989 197.929166 92.560319 198.100364 94.32993 198.100364 C 107.778971 198.100364 119.800758 188.541037 122.410066 174.859077 C 125.370983 159.370283 115.169698 144.360381 99.6804 141.410686 C 92.180952 139.980951 84.558903 141.561062 78.250762 145.850267 C 71.931054 150.139471 67.660856 156.640369 66.228975 164.149947 C 64.799407 171.65027 66.379334 179.270896 70.670351 185.589028 C 74.970621 191.909474 81.459193 196.18017 88.970207 197.609905 Z M 88.960954 197.589083 " stroke="#1d4798" stroke-width="4" stroke-opacity="1" stroke-miterlimit="10"></path><path stroke-linecap="butt" transform="matrix(1.688666, 0, 0, 1.688469, -30.971427, -152.607367)" fill="none" stroke-linejoin="miter" d="M 152.040057 231.918913 C 151.359971 231.789357 150.659067 231.939734 150.090015 232.319146 C 149.520964 232.710125 149.120778 233.309318 148.988924 233.989483 L 146.789055 245.510647 C 146.520722 246.919561 147.450635 248.289145 148.859384 248.559823 L 153.310013 249.408872 C 153.520516 251.840347 154.02017 254.239432 154.799724 256.55986 L 151.05 259.109322 C 150.480949 259.500301 150.080763 260.099494 149.948909 260.779659 C 149.819369 261.459825 149.960475 262.160811 150.349096 262.729929 L 156.93945 272.430378 C 157.330383 272.999496 157.929506 273.399729 158.609592 273.520031 C 159.289678 273.649586 159.990582 273.499209 160.559634 273.119798 L 164.309358 270.570335 C 166.190003 272.150447 168.23026 273.489955 170.40931 274.579608 L 169.560359 279.030756 C 169.289713 280.439669 170.219626 281.809254 171.630688 282.079932 L 183.150507 284.280057 C 183.319371 284.310133 183.478983 284.330954 183.640908 284.330954 C 184.869226 284.330954 185.961065 283.461083 186.199326 282.209487 L 187.05059 277.760652 C 189.479467 277.550125 191.880586 277.050411 194.200742 276.270766 L 196.749907 280.020928 C 197.14084 280.590046 197.739963 280.990279 198.420049 281.119835 C 199.100135 281.24939 199.801039 281.099013 200.370091 280.710347 L 210.069408 274.119224 C 211.260714 273.309503 211.570685 271.690063 210.761059 270.500931 L 208.209582 266.750769 C 209.789509 264.869904 211.140427 262.829409 212.229952 260.650104 L 216.680581 261.499154 C 218.08933 261.769832 219.461067 260.83981 219.7294 259.430897 L 221.929269 247.909733 C 222.061122 247.229568 221.910763 246.530895 221.529083 245.959464 C 221.140462 245.390346 220.539026 244.990113 219.85894 244.860557 L 215.410625 244.009194 C 215.200122 241.580033 214.700467 239.180947 213.920913 236.86052 L 217.670637 234.311058 C 218.859631 233.499024 219.169602 231.879583 218.359976 230.690451 L 211.769622 220.990002 C 211.381002 220.420884 210.779565 220.020651 210.09948 219.891095 C 209.419394 219.759227 208.720802 219.909603 208.149438 220.289015 L 204.399714 222.840791 C 202.530635 221.260679 200.481125 219.921171 198.299762 218.819951 L 199.151026 214.371116 C 199.419359 212.959889 198.489446 211.590305 197.080697 211.319627 L 185.560878 209.119501 C 184.880793 208.989946 184.179888 209.140323 183.610837 209.519734 C 183.039472 209.910714 182.639286 210.509907 182.509746 211.190072 L 181.660795 215.638907 C 179.229604 215.849434 176.830799 216.349147 174.510643 217.131106 L 171.959165 213.380944 C 171.570544 212.809513 170.969108 212.409279 170.289022 212.279724 C 169.608937 212.150169 168.910345 212.300545 168.338981 212.679957 L 158.639664 219.271081 C 158.070613 219.659747 157.670426 220.25894 157.550139 220.939105 C 157.420599 221.61927 157.559392 222.320256 157.950325 222.889374 L 160.49949 226.639536 C 158.919563 228.520401 157.570958 230.560896 156.490686 232.740201 L 152.040057 231.891151 Z M 152.040057 231.918913 " stroke="#1d4798" stroke-width="4" stroke-opacity="1" stroke-miterlimit="10"></path><path stroke-linecap="butt" transform="matrix(1.688666, 0, 0, 1.688469, -30.971427, -152.607367)" fill="none" stroke-linejoin="miter" d="M 180.848856 265.11976 C 182.03091 265.351109 183.21065 265.450589 184.369572 265.450589 C 193.180614 265.450589 201.059429 259.190294 202.768896 250.220906 C 204.709685 240.069326 198.019863 230.239321 187.869468 228.30062 C 182.960823 227.35903 177.968901 228.400099 173.830557 231.210986 C 169.689899 234.019559 166.890907 238.281001 165.949428 243.199474 C 165.010262 248.12026 166.048897 253.098884 168.859455 257.240025 C 171.670013 261.378852 175.930958 264.180485 180.851169 265.110507 Z M 180.848856 265.11976 " stroke="#1d4798" stroke-width="4" stroke-opacity="1" stroke-miterlimit="10"></path><path stroke-linecap="butt" transform="matrix(1.688666, 0, 0, 1.688469, -30.971427, -152.607367)" fill="none" stroke-linejoin="miter" d="M 169.160173 159.849175 C 168.709096 159.758949 168.23026 159.860742 167.850892 160.119853 C 167.469211 160.378963 167.200878 160.779196 167.119916 161.23958 L 165.651023 168.938864 C 165.470592 169.889707 166.090534 170.798907 167.038953 170.979359 L 170.009123 171.550791 C 170.150229 173.179485 170.481019 174.780418 170.99918 176.330454 L 168.48934 178.030867 C 168.109972 178.289977 167.839326 178.690211 167.760677 179.150594 C 167.670461 179.599411 167.760677 180.080616 168.02901 180.460028 L 172.440314 186.949358 C 172.699394 187.331083 173.099581 187.599448 173.550658 187.68042 C 173.999422 187.770646 174.469005 187.668852 174.859938 187.409742 L 177.369778 185.709329 C 178.618915 186.768906 179.990653 187.668852 181.450292 188.39066 L 180.878928 191.370431 C 180.70081 192.309707 181.320752 193.230474 182.269171 193.410926 L 189.969869 194.879991 C 190.080903 194.900812 190.189625 194.910066 190.300659 194.910066 C 191.119538 194.910066 191.850514 194.329381 192.010126 193.489585 L 192.579177 190.519068 C 194.209995 190.380259 195.810741 190.04943 197.360596 189.528896 L 199.06081 192.039029 C 199.31989 192.420754 199.720077 192.689119 200.180407 192.770091 C 200.629171 192.860317 201.101067 192.760837 201.489687 192.499413 L 207.980573 188.089907 C 208.780946 187.550865 208.979883 186.458899 208.440903 185.67 L 206.729123 183.159867 C 207.790889 181.910584 208.690731 180.541 209.419394 179.078876 L 212.389564 179.650308 C 213.331043 179.830759 214.24939 179.210745 214.429821 178.259902 L 215.901027 170.560618 C 215.988929 170.109488 215.889461 169.639851 215.63038 169.248871 C 215.368987 168.869459 214.971114 168.601095 214.510784 168.520123 L 211.540613 167.951005 C 211.399507 166.319997 211.071031 164.719064 210.550557 163.169028 L 213.060397 161.470929 C 213.86077 160.929573 214.059706 159.839921 213.520727 159.051022 L 209.109423 152.559378 C 208.850343 152.179966 208.450156 151.909288 207.989826 151.83063 C 207.541062 151.740404 207.069166 151.839884 206.680545 152.098994 L 204.170705 153.799407 C 202.919255 152.73983 201.549831 151.839884 200.090191 151.108822 L 200.659243 148.140619 C 200.839674 147.189775 200.219732 146.280575 199.269 146.100123 L 191.570615 144.631059 C 191.119538 144.540833 190.649955 144.640313 190.259021 144.899424 C 189.879654 145.160848 189.609007 145.561081 189.530358 146.019151 L 188.958993 148.989668 C 187.330489 149.130791 185.729743 149.459306 184.179888 149.97984 L 182.479674 147.469707 C 182.220594 147.090296 181.820407 146.819618 181.360077 146.740959 C 180.909 146.650733 180.439417 146.750213 180.050796 147.009324 L 173.559911 151.421143 C 173.180543 151.680253 172.909897 152.080486 172.828934 152.529303 C 172.741032 152.980433 172.828934 153.450071 173.099581 153.84105 L 174.799795 156.348869 C 173.740342 157.600466 172.8405 158.97005 172.109524 160.42986 L 169.130101 159.860742 Z M 169.160173 159.849175 " stroke="#1d4798" stroke-width="4" stroke-opacity="1" stroke-miterlimit="10"></path><path stroke-linecap="butt" transform="matrix(1.688666, 0, 0, 1.688469, -30.971427, -152.607367)" fill="none" stroke-linejoin="miter" d="M 188.429267 182.049393 C 189.220387 182.19977 190.009194 182.269174 190.779495 182.269174 C 196.668944 182.269174 201.940765 178.07945 203.090433 172.089833 C 204.390461 165.299749 199.919013 158.729447 193.129723 157.429268 C 189.840329 156.799999 186.509297 157.489418 183.740377 159.370283 C 180.969143 161.251148 179.100064 164.09905 178.470869 167.391141 C 177.839361 170.68092 178.531013 174.010027 180.420911 176.779271 C 182.299243 179.550828 185.149126 181.420125 188.440833 182.049393 Z M 188.429267 182.049393 " stroke="#1d4798" stroke-width="4" stroke-opacity="1" stroke-miterlimit="10"></path></svg>