<svg xmlns="http://www.w3.org/2000/svg" xmlns:xlink="http://www.w3.org/1999/xlink" width="500" viewBox="0 0 375 374.999991" height="500" preserveAspectRatio="xMidYMid meet"><defs><clipPath id="990824acfa"><path d="M 34.519531 34.519531 L 340.519531 34.519531 L 340.519531 340.519531 L 34.519531 340.519531 Z M 34.519531 34.519531 " clip-rule="nonzero"></path></clipPath></defs><path fill="#1d4798" d="M 233.359375 205.054688 C 229.894531 205.054688 226.59375 206.097656 223.792969 208.011719 C 220.890625 205.867188 217.421875 204.660156 213.746094 204.660156 C 209.199219 204.660156 204.925781 206.429688 201.710938 209.644531 C 200.214844 211.140625 200.214844 213.5625 201.710938 215.054688 C 203.203125 216.550781 205.628906 216.550781 207.121094 215.054688 C 210.660156 211.515625 216.832031 211.511719 220.375 215.054688 C 222.144531 216.824219 223.121094 219.179688 223.121094 221.679688 C 223.121094 224.1875 222.144531 226.539062 220.375 228.308594 C 218.878906 229.804688 218.878906 232.222656 220.375 233.71875 C 221.121094 234.464844 222.101562 234.839844 223.078125 234.839844 C 224.058594 234.839844 225.035156 234.464844 225.78125 233.71875 C 229 230.503906 230.769531 226.230469 230.769531 221.679688 C 230.769531 218.9375 230.050781 216.324219 228.832031 213.953125 C 232.382812 212.058594 237.070312 212.535156 239.988281 215.449219 C 240.734375 216.199219 241.710938 216.570312 242.691406 216.570312 C 243.667969 216.570312 244.648438 216.199219 245.394531 215.449219 C 246.890625 213.957031 246.890625 211.535156 245.394531 210.042969 C 242.179688 206.824219 237.90625 205.054688 233.359375 205.054688 Z M 233.359375 205.054688 " fill-opacity="1" fill-rule="nonzero"></path><path fill="#1d4798" d="M 263.914062 194.035156 C 262.976562 193.054688 261.964844 192.144531 260.890625 191.308594 C 265.636719 187.910156 268.703125 182.359375 268.703125 176.253906 C 268.703125 167.894531 263.125 160.789062 255.492188 158.480469 C 257.253906 152.460938 256.945312 145.984375 254.546875 139.800781 C 251.738281 132.578125 245.714844 126.742188 238.4375 124.1875 C 232.472656 122.09375 226.375 121.898438 220.753906 123.5 C 221.007812 120.515625 220.535156 117.425781 219.300781 114.429688 C 217.402344 109.8125 213.613281 106.207031 208.910156 104.535156 C 202.90625 102.402344 196.582031 103.214844 191.5625 106.757812 C 189.992188 107.867188 188.652344 109.214844 187.519531 110.707031 C 186.382812 109.214844 185.042969 107.867188 183.472656 106.757812 C 178.457031 103.214844 172.132812 102.402344 166.128906 104.535156 C 161.421875 106.207031 157.636719 109.8125 155.734375 114.429688 C 154.5 117.425781 154.027344 120.515625 154.28125 123.5 C 148.664062 121.898438 142.566406 122.09375 136.597656 124.1875 C 129.320312 126.742188 123.296875 132.578125 120.492188 139.800781 C 118.089844 145.984375 117.78125 152.460938 119.542969 158.480469 C 111.914062 160.789062 106.332031 167.894531 106.332031 176.253906 C 106.332031 182.359375 109.398438 187.910156 114.144531 191.308594 C 113.074219 192.144531 112.058594 193.054688 111.121094 194.035156 C 106.082031 199.296875 103.308594 206.203125 103.308594 213.480469 C 103.308594 225.695312 111.09375 236.289062 122.347656 240.113281 C 121.289062 244.800781 121.800781 249.660156 123.882812 254.382812 C 126.054688 259.316406 130.199219 263.34375 135.246094 265.421875 C 141.207031 267.882812 147.398438 267.84375 152.988281 265.375 C 157.261719 269.476562 162.792969 271.65625 168.59375 271.652344 C 171.519531 271.652344 174.519531 271.097656 177.453125 269.953125 C 181.609375 268.335938 185.085938 265.410156 187.519531 261.714844 C 189.953125 265.410156 193.425781 268.335938 197.582031 269.953125 C 200.515625 271.097656 203.515625 271.652344 206.441406 271.652344 C 212.242188 271.652344 217.773438 269.476562 222.046875 265.375 C 227.640625 267.84375 233.832031 267.878906 239.785156 265.421875 C 244.835938 263.34375 248.980469 259.316406 251.152344 254.382812 C 253.234375 249.660156 253.746094 244.800781 252.6875 240.113281 C 263.941406 236.289062 271.726562 225.695312 271.726562 213.480469 C 271.726562 206.203125 268.953125 199.296875 263.914062 194.035156 Z M 174.679688 262.828125 C 166.667969 265.945312 160.203125 262.503906 156.820312 258.242188 C 156.070312 257.300781 154.953125 256.796875 153.824219 256.796875 C 153.132812 256.796875 152.441406 256.980469 151.816406 257.367188 C 148.886719 259.175781 144.144531 260.816406 138.164062 258.347656 C 134.921875 257.015625 132.269531 254.441406 130.882812 251.296875 C 128.578125 246.066406 129.539062 241.714844 130.75 238.980469 C 131.226562 237.90625 131.183594 236.667969 130.628906 235.632812 C 130.074219 234.59375 129.074219 233.867188 127.914062 233.664062 C 118.089844 231.945312 110.957031 223.457031 110.957031 213.480469 C 110.957031 208.183594 112.976562 203.15625 116.644531 199.328125 C 118.734375 197.148438 121.316406 195.429688 124.121094 194.351562 C 125.742188 193.726562 126.738281 192.085938 126.546875 190.359375 C 126.355469 188.632812 125.023438 187.25 123.304688 186.996094 C 117.902344 186.199219 113.980469 181.679688 113.980469 176.253906 C 113.980469 170.261719 118.859375 165.367188 124.855469 165.339844 C 126.179688 165.335938 127.40625 164.644531 128.097656 163.515625 C 128.789062 162.386719 128.847656 160.980469 128.253906 159.796875 C 126.371094 156.046875 124.730469 150.015625 127.621094 142.574219 C 129.628906 137.40625 133.933594 133.230469 139.128906 131.40625 C 146.269531 128.898438 153.617188 130.046875 159.289062 134.535156 C 160.839844 135.765625 163.066406 135.609375 164.429688 134.183594 C 165.792969 132.757812 165.847656 130.53125 164.558594 129.039062 C 161.734375 125.765625 161.09375 121.503906 162.808594 117.34375 C 163.867188 114.769531 166.0625 112.675781 168.6875 111.746094 C 172.320312 110.453125 176.09375 110.914062 179.0625 113.007812 C 181.960938 115.054688 183.691406 118.394531 183.691406 121.9375 L 183.691406 225.171875 C 180.320312 222.523438 176.128906 220.875 171.515625 220.875 C 160.582031 220.875 151.6875 229.769531 151.6875 240.699219 C 151.6875 242.8125 153.402344 244.523438 155.511719 244.523438 C 157.625 244.523438 159.339844 242.8125 159.339844 240.699219 C 159.339844 233.984375 164.800781 228.523438 171.515625 228.523438 C 178.230469 228.523438 183.691406 233.984375 183.691406 240.699219 L 183.691406 248.902344 C 183.691406 255.128906 180.070312 260.726562 174.679688 262.828125 Z M 247.121094 233.664062 C 245.964844 233.867188 244.960938 234.59375 244.40625 235.632812 C 243.851562 236.667969 243.808594 237.90625 244.285156 238.980469 C 245.496094 241.714844 246.457031 246.066406 244.152344 251.296875 C 242.765625 254.441406 240.113281 257.015625 236.871094 258.347656 C 230.898438 260.816406 226.152344 259.175781 223.21875 257.367188 C 221.570312 256.351562 219.417969 256.726562 218.214844 258.242188 C 214.835938 262.503906 208.375 265.945312 200.355469 262.828125 C 194.964844 260.726562 191.34375 255.128906 191.34375 248.902344 L 191.34375 172.453125 C 194.714844 175.105469 198.910156 176.753906 203.519531 176.753906 C 214.453125 176.753906 223.347656 167.859375 223.347656 156.925781 C 223.347656 154.8125 221.632812 153.101562 219.523438 153.101562 C 217.410156 153.101562 215.699219 154.8125 215.699219 156.925781 C 215.699219 163.640625 210.234375 169.101562 203.519531 169.101562 C 196.804688 169.101562 191.34375 163.640625 191.34375 156.925781 L 191.34375 121.9375 C 191.34375 118.394531 193.074219 115.054688 195.972656 113.007812 C 197.832031 111.699219 200.007812 111.027344 202.269531 111.027344 C 203.617188 111.027344 204.992188 111.265625 206.351562 111.746094 C 208.972656 112.675781 211.167969 114.769531 212.226562 117.34375 C 213.941406 121.503906 213.304688 125.765625 210.476562 129.039062 C 209.1875 130.53125 209.242188 132.757812 210.609375 134.183594 C 211.972656 135.613281 214.199219 135.761719 215.746094 134.535156 C 221.417969 130.042969 228.761719 128.902344 235.90625 131.40625 C 241.101562 133.230469 245.40625 137.40625 247.414062 142.574219 C 250.304688 150.015625 248.664062 156.046875 246.78125 159.796875 C 246.1875 160.980469 246.246094 162.386719 246.9375 163.515625 C 247.632812 164.644531 248.859375 165.335938 250.183594 165.339844 C 256.175781 165.367188 261.054688 170.261719 261.054688 176.253906 C 261.054688 181.679688 257.132812 186.199219 251.730469 186.996094 C 250.011719 187.25 248.679688 188.632812 248.488281 190.359375 C 248.296875 192.085938 249.296875 193.726562 250.917969 194.351562 C 253.71875 195.429688 256.300781 197.148438 258.390625 199.328125 C 262.058594 203.15625 264.078125 208.183594 264.078125 213.480469 C 264.078125 223.457031 256.945312 231.945312 247.121094 233.664062 Z M 247.121094 233.664062 " fill-opacity="1" fill-rule="nonzero"></path><path fill="#1d4798" d="M 159.046875 187.703125 C 159.046875 189.816406 160.757812 191.53125 162.871094 191.53125 C 164.984375 191.53125 166.695312 189.816406 166.695312 187.703125 C 166.695312 181.714844 163.566406 176.460938 158.875 173.425781 C 158.894531 173.40625 158.917969 173.394531 158.9375 173.375 C 165.574219 166.738281 165.574219 155.9375 158.9375 149.300781 C 157.441406 147.808594 155.023438 147.808594 153.527344 149.300781 C 152.035156 150.792969 152.035156 153.214844 153.527344 154.710938 C 157.179688 158.367188 157.179688 164.3125 153.527344 167.96875 C 149.875 171.621094 143.925781 171.621094 140.269531 167.96875 C 138.777344 166.472656 136.351562 166.472656 134.863281 167.96875 C 133.367188 169.460938 133.367188 171.882812 134.863281 173.375 C 138.179688 176.695312 142.539062 178.351562 146.898438 178.351562 C 147.554688 178.351562 148.203125 178.242188 148.855469 178.164062 C 149.125 178.226562 149.382812 178.332031 149.671875 178.332031 C 154.839844 178.332031 159.046875 182.535156 159.046875 187.703125 Z M 159.046875 187.703125 " fill-opacity="1" fill-rule="nonzero"></path><g clip-path="url(#990824acfa)"><path fill="#1d4798" d="M 336.691406 191.34375 C 338.804688 191.34375 340.519531 189.628906 340.519531 187.519531 C 340.519531 185.40625 338.804688 183.691406 336.691406 183.691406 L 302.269531 183.691406 L 302.269531 130.144531 L 322.199219 130.144531 C 323.675781 133.515625 327.035156 135.878906 330.957031 135.878906 C 336.238281 135.878906 340.519531 131.597656 340.519531 126.316406 C 340.519531 121.035156 336.238281 116.753906 330.957031 116.753906 C 327.035156 116.753906 323.675781 119.117188 322.199219 122.492188 L 302.269531 122.492188 L 302.269531 91.894531 C 302.269531 81.347656 293.6875 72.769531 283.144531 72.769531 L 252.558594 72.769531 L 252.558594 38.34375 C 252.558594 36.230469 250.847656 34.519531 248.734375 34.519531 C 246.621094 34.519531 244.910156 36.230469 244.910156 38.34375 L 244.910156 72.769531 L 191.359375 72.769531 L 191.359375 38.34375 C 191.359375 36.230469 189.648438 34.519531 187.535156 34.519531 C 185.421875 34.519531 183.710938 36.230469 183.710938 38.34375 L 183.710938 72.769531 L 130.160156 72.769531 L 130.160156 52.835938 C 133.535156 51.359375 135.898438 48 135.898438 44.082031 C 135.898438 38.800781 131.617188 34.519531 126.335938 34.519531 C 121.054688 34.519531 116.773438 38.800781 116.773438 44.082031 C 116.773438 48 119.136719 51.359375 122.507812 52.835938 L 122.507812 72.769531 L 91.894531 72.769531 C 81.347656 72.769531 72.769531 81.347656 72.769531 91.894531 L 72.769531 122.492188 L 38.34375 122.492188 C 36.230469 122.492188 34.519531 124.207031 34.519531 126.316406 C 34.519531 128.429688 36.230469 130.144531 38.34375 130.144531 L 72.769531 130.144531 L 72.769531 183.691406 L 38.34375 183.691406 C 36.230469 183.691406 34.519531 185.40625 34.519531 187.519531 C 34.519531 189.628906 36.230469 191.34375 38.34375 191.34375 L 72.769531 191.34375 L 72.769531 244.894531 L 52.835938 244.894531 C 51.359375 241.519531 48 239.15625 44.082031 239.15625 C 38.800781 239.15625 34.519531 243.4375 34.519531 248.71875 C 34.519531 254 38.800781 258.28125 44.082031 258.28125 C 48 258.28125 51.359375 255.917969 52.835938 252.542969 L 72.769531 252.542969 L 72.769531 283.144531 C 72.769531 293.6875 81.347656 302.269531 91.894531 302.269531 L 122.492188 302.269531 L 122.492188 322.242188 C 119.128906 323.722656 116.773438 327.074219 116.773438 330.988281 C 116.773438 336.269531 121.054688 340.550781 126.335938 340.550781 C 131.617188 340.550781 135.898438 336.269531 135.898438 330.988281 C 135.898438 327.0625 133.527344 323.695312 130.144531 322.222656 L 130.144531 302.269531 L 183.691406 302.269531 L 183.691406 336.691406 C 183.691406 338.804688 185.40625 340.519531 187.519531 340.519531 C 189.628906 340.519531 191.34375 338.804688 191.34375 336.691406 L 191.34375 302.269531 L 244.894531 302.269531 L 244.894531 336.691406 C 244.894531 338.804688 246.605469 340.519531 248.71875 340.519531 C 250.832031 340.519531 252.542969 338.804688 252.542969 336.691406 L 252.542969 302.269531 L 283.144531 302.269531 C 293.6875 302.269531 302.269531 293.6875 302.269531 283.144531 L 302.269531 252.542969 L 336.691406 252.542969 C 338.804688 252.542969 340.519531 250.832031 340.519531 248.71875 C 340.519531 246.605469 338.804688 244.894531 336.691406 244.894531 L 302.269531 244.894531 L 302.269531 191.34375 Z M 294.617188 283.144531 C 294.617188 289.46875 289.46875 294.617188 283.144531 294.617188 L 91.894531 294.617188 C 85.566406 294.617188 80.417969 289.46875 80.417969 283.144531 L 80.417969 91.894531 C 80.417969 85.566406 85.566406 80.417969 91.894531 80.417969 L 283.144531 80.417969 C 289.46875 80.417969 294.617188 85.566406 294.617188 91.894531 Z M 294.617188 283.144531 " fill-opacity="1" fill-rule="nonzero"></path></g></svg>