<svg xmlns="http://www.w3.org/2000/svg" xmlns:xlink="http://www.w3.org/1999/xlink" width="500" viewBox="0 0 375 374.999991" height="500" preserveAspectRatio="xMidYMid meet"><defs><clipPath id="98e4ebe7c2"><path d="M 7.445312 97 L 198 97 L 198 271 L 7.445312 271 Z M 7.445312 97 " clip-rule="nonzero"></path></clipPath><clipPath id="6fb0a2c652"><path d="M 7.445312 0 L 203 0 L 203 163 L 7.445312 163 Z M 7.445312 0 " clip-rule="nonzero"></path></clipPath></defs><path stroke-linecap="butt" transform="matrix(1.456962, 0, 0, 1.457171, 7.475428, -104.877152)" fill="none" stroke-linejoin="miter" d="M 140.549048 205.000521 C 140.549048 205.000521 140.549048 222.730719 120.800115 222.730719 C 102.670563 222.730719 102.670563 205.000521 102.670563 205.000521 L 140.559772 205.000521 Z M 140.549048 205.000521 " stroke="#1d4798" stroke-width="4" stroke-opacity="1" stroke-miterlimit="10"></path><path stroke-linecap="butt" transform="matrix(1.456962, 0, 0, 1.457171, 7.475428, -104.877152)" fill="none" stroke-linejoin="miter" d="M 121.609805 204.38932 L 121.609805 177.29005 " stroke="#1d4798" stroke-width="4" stroke-opacity="1" stroke-miterlimit="10"></path><path stroke-linecap="butt" transform="matrix(1.456962, 0, 0, 1.457171, 7.475428, -104.877152)" fill="none" stroke-linejoin="miter" d="M 129.929238 168.290916 C 129.929238 168.8351 129.875616 169.376603 129.771053 169.912744 C 129.663809 170.448886 129.505625 170.968943 129.2965 171.472916 C 129.087374 171.979569 128.829989 172.459416 128.527026 172.912455 C 128.224062 173.365495 127.878201 173.786366 127.492124 174.172388 C 127.106047 174.55841 126.687796 174.904221 126.23201 175.207141 C 125.778905 175.510061 125.29899 175.767409 124.794944 175.976504 C 124.288218 176.185599 123.768085 176.343761 123.231867 176.450989 C 122.698329 176.555537 122.156748 176.609151 121.609805 176.609151 C 121.062862 176.609151 120.523963 176.555537 119.987744 176.450989 C 119.451525 176.343761 118.931393 176.185599 118.427348 175.976504 C 117.920621 175.767409 117.440705 175.510061 116.987601 175.207141 C 116.534496 174.904221 116.113564 174.55841 115.727487 174.172388 C 115.341409 173.786366 114.995548 173.365495 114.692585 172.912455 C 114.389621 172.459416 114.132236 171.979569 113.923111 171.472916 C 113.713986 170.968943 113.555801 170.448886 113.448558 169.912744 C 113.343995 169.376603 113.290373 168.8351 113.290373 168.290916 C 113.290373 167.744052 113.343995 167.202549 113.448558 166.666408 C 113.555801 166.130266 113.713986 165.610209 113.923111 165.106236 C 114.132236 164.602263 114.389621 164.122416 114.692585 163.666696 C 114.995548 163.213657 115.341409 162.792786 115.727487 162.406764 C 116.113564 162.020742 116.534496 161.674931 116.987601 161.372011 C 117.440705 161.069091 117.920621 160.811743 118.427348 160.602648 C 118.931393 160.393553 119.451525 160.235391 119.987744 160.130843 C 120.523963 160.023615 121.062862 159.970001 121.609805 159.970001 C 122.156748 159.970001 122.698329 160.023615 123.231867 160.130843 C 123.768085 160.235391 124.288218 160.393553 124.794944 160.602648 C 125.29899 160.811743 125.778905 161.069091 126.23201 161.372011 C 126.687796 161.674931 127.106047 162.020742 127.492124 162.406764 C 127.878201 162.792786 128.224062 163.213657 128.527026 163.666696 C 128.829989 164.122416 129.087374 164.602263 129.2965 165.106236 C 129.505625 165.610209 129.663809 166.130266 129.771053 166.666408 C 129.875616 167.202549 129.929238 167.744052 129.929238 168.290916 Z M 129.929238 168.290916 " stroke="#1d4798" stroke-width="4" stroke-opacity="1" stroke-miterlimit="10"></path><path stroke-linecap="butt" transform="matrix(1.456962, 0, 0, 1.457171, 7.475428, -104.877152)" fill="none" stroke-linejoin="miter" d="M 102.659838 205.000521 C 102.659838 205.000521 53.569021 121.491129 121.599081 121.491129 C 189.629141 121.491129 140.541005 205.000521 140.541005 205.000521 " stroke="#1d4798" stroke-width="4" stroke-opacity="1" stroke-miterlimit="10"></path><g clip-path="url(#98e4ebe7c2)"><path stroke-linecap="butt" transform="matrix(1.456962, 0, 0, 1.457171, 7.475428, -104.877152)" fill="none" stroke-linejoin="miter" d="M 74.149093 195.349975 L 48.381106 200.890997 " stroke="#1d4798" stroke-width="4" stroke-opacity="1" stroke-miterlimit="10"></path></g><g clip-path="url(#6fb0a2c652)"><path stroke-linecap="butt" transform="matrix(1.456962, 0, 0, 1.457171, 7.475428, -104.877152)" fill="none" stroke-linejoin="miter" d="M 77.519227 126.83914 L 53.429604 116.15116 " stroke="#1d4798" stroke-width="4" stroke-opacity="1" stroke-miterlimit="10"></path></g><path stroke-linecap="butt" transform="matrix(1.456962, 0, 0, 1.457171, 7.475428, -104.877152)" fill="none" stroke-linejoin="miter" d="M 162.290033 195.349975 L 188.049977 200.890997 " stroke="#1d4798" stroke-width="4" stroke-opacity="1" stroke-miterlimit="10"></path><path stroke-linecap="butt" transform="matrix(1.456962, 0, 0, 1.457171, 7.475428, -104.877152)" fill="none" stroke-linejoin="miter" d="M 168.360028 126.860586 L 190.369123 117.679163 " stroke="#1d4798" stroke-width="4" stroke-opacity="1" stroke-miterlimit="10"></path><path stroke-linecap="butt" transform="matrix(1.456962, 0, 0, 1.457171, 7.475428, -104.877152)" fill="none" stroke-linejoin="miter" d="M 123.770767 80.74974 L 123.770767 104.910955 " stroke="#1d4798" stroke-width="4" stroke-opacity="1" stroke-miterlimit="10"></path><path stroke-linecap="butt" transform="matrix(1.456962, 0, 0, 1.457171, 7.475428, -104.877152)" fill="none" stroke-linejoin="miter" d="M 120.800115 222.730719 L 120.800115 245.690977 L 65.481118 245.690977 L 65.481118 278.240124 " stroke="#1d4798" stroke-width="4" stroke-opacity="1" stroke-miterlimit="10"></path><path stroke-linecap="butt" transform="matrix(1.456962, 0, 0, 1.457171, 7.475428, -104.877152)" fill="none" stroke-linejoin="miter" d="M 119.990425 222.730719 L 119.990425 245.690977 L 175.170005 245.690977 L 174.770522 288.949549 " stroke="#1d4798" stroke-width="4" stroke-opacity="1" stroke-miterlimit="10"></path><path stroke-linecap="butt" transform="matrix(1.456962, 0, 0, 1.457171, 7.475428, -104.877152)" fill="none" stroke-linejoin="miter" d="M 85.870833 245.690977 L 85.870833 264.01093 " stroke="#1d4798" stroke-width="4" stroke-opacity="1" stroke-miterlimit="10"></path><path stroke-linecap="butt" transform="matrix(1.456962, 0, 0, 1.457171, 7.475428, -104.877152)" fill="none" stroke-linejoin="miter" d="M 157.710726 245.690977 L 157.710726 264.01093 " stroke="#1d4798" stroke-width="4" stroke-opacity="1" stroke-miterlimit="10"></path><path stroke-linecap="butt" transform="matrix(1.456962, 0, 0, 1.457171, 7.475428, -104.877152)" fill="none" stroke-linejoin="miter" d="M 70.360708 284.880236 C 70.360708 285.260896 70.323173 285.641557 70.248102 286.014175 C 70.173032 286.389474 70.063107 286.75405 69.915647 287.107904 C 69.770868 287.459076 69.591234 287.796845 69.379428 288.113169 C 69.167622 288.432173 68.926323 288.72437 68.655533 288.995121 C 68.384742 289.265873 68.092503 289.507137 67.773453 289.718912 C 67.454403 289.930688 67.119266 290.110296 66.768043 290.257735 C 66.414139 290.402493 66.04951 290.512402 65.674157 290.587462 C 65.301485 290.662521 64.923451 290.700051 64.540055 290.700051 C 64.156658 290.700051 63.778624 290.662521 63.403271 290.587462 C 63.030599 290.512402 62.665971 290.402493 62.312066 290.257735 C 61.960843 290.110296 61.623025 289.930688 61.306656 289.718912 C 60.987606 289.507137 60.695367 289.265873 60.424577 288.995121 C 60.153786 288.72437 59.912488 288.432173 59.700681 288.113169 C 59.488875 287.796845 59.309242 287.459076 59.161782 287.107904 C 59.017003 286.75405 58.907078 286.389474 58.832007 286.014175 C 58.756937 285.641557 58.719401 285.260896 58.719401 284.880236 C 58.719401 284.496895 58.756937 284.118915 58.832007 283.743616 C 58.907078 283.370998 59.017003 283.006421 59.161782 282.652568 C 59.309242 282.298715 59.488875 281.963626 59.700681 281.647303 C 59.912488 281.328299 60.153786 281.036102 60.424577 280.76535 C 60.695367 280.494599 60.987606 280.253335 61.306656 280.041559 C 61.623025 279.829783 61.960843 279.650176 62.312066 279.502737 C 62.665971 279.357979 63.030599 279.245389 63.403271 279.17301 C 63.778624 279.09795 64.156658 279.06042 64.540055 279.06042 C 64.923451 279.06042 65.301485 279.09795 65.674157 279.17301 C 66.04951 279.245389 66.414139 279.357979 66.768043 279.502737 C 67.119266 279.650176 67.454403 279.829783 67.773453 280.041559 C 68.089822 280.253335 68.384742 280.494599 68.655533 280.76535 C 68.926323 281.036102 69.167622 281.328299 69.379428 281.647303 C 69.591234 281.963626 69.770868 282.298715 69.915647 282.652568 C 70.063107 283.006421 70.173032 283.370998 70.248102 283.743616 C 70.323173 284.118915 70.360708 284.496895 70.360708 284.880236 Z M 70.360708 284.880236 " stroke="#1d4798" stroke-width="4" stroke-opacity="1" stroke-miterlimit="10"></path><path stroke-linecap="butt" transform="matrix(1.456962, 0, 0, 1.457171, 7.475428, -104.877152)" fill="none" stroke-linejoin="miter" d="M 91.35903 271.13893 C 91.35903 271.522272 91.321495 271.900251 91.249106 272.27555 C 91.174035 272.650849 91.06411 273.015426 90.91665 273.366598 C 90.771871 273.720452 90.592238 274.05554 90.380431 274.374544 C 90.165944 274.690868 89.924645 274.985745 89.656536 275.256497 C 89.385746 275.524568 89.090826 275.765831 88.774456 275.980288 C 88.455406 276.192064 88.12027 276.371671 87.766365 276.516429 C 87.415142 276.663868 87.050514 276.773777 86.67516 276.848837 C 86.299807 276.923897 85.921773 276.958746 85.541058 276.958746 C 85.157662 276.958746 84.779628 276.923897 84.404275 276.848837 C 84.028921 276.773777 83.666974 276.663868 83.31307 276.516429 C 82.959165 276.371671 82.624029 276.192064 82.30766 275.980288 C 81.98861 275.765831 81.693689 275.524568 81.42558 275.256497 C 81.15479 274.985745 80.913491 274.690868 80.701685 274.374544 C 80.487197 274.05554 80.310245 273.720452 80.162785 273.366598 C 80.018006 273.015426 79.9054 272.650849 79.833011 272.27555 C 79.75794 271.900251 79.720405 271.522272 79.720405 271.13893 C 79.720405 270.75827 79.75794 270.38029 79.833011 270.004991 C 79.9054 269.629692 80.018006 269.265116 80.162785 268.913943 C 80.310245 268.56009 80.487197 268.225002 80.701685 267.905998 C 80.913491 267.589674 81.15479 267.294796 81.42558 267.024045 C 81.693689 266.753293 81.98861 266.51203 82.30766 266.300254 C 82.624029 266.088478 82.959165 265.908871 83.31307 265.764112 C 83.666974 265.616674 84.028921 265.506765 84.404275 265.431705 C 84.779628 265.356645 85.157662 265.319115 85.541058 265.319115 C 85.921773 265.319115 86.299807 265.356645 86.67516 265.431705 C 87.050514 265.506765 87.415142 265.616674 87.766365 265.764112 C 88.12027 265.908871 88.455406 266.088478 88.774456 266.300254 C 89.090826 266.51203 89.385746 266.753293 89.656536 267.024045 C 89.924645 267.294796 90.165944 267.589674 90.380431 267.905998 C 90.592238 268.225002 90.771871 268.56009 90.91665 268.913943 C 91.06411 269.265116 91.174035 269.629692 91.249106 270.004991 C 91.321495 270.38029 91.35903 270.75827 91.35903 271.13893 Z M 91.35903 271.13893 " stroke="#1d4798" stroke-width="4" stroke-opacity="1" stroke-miterlimit="10"></path><path stroke-linecap="butt" transform="matrix(1.456962, 0, 0, 1.457171, 7.475428, -104.877152)" fill="none" stroke-linejoin="miter" d="M 163.528698 271.13893 C 163.528698 271.522272 163.493844 271.900251 163.418773 272.27555 C 163.343703 272.650849 163.233778 273.015426 163.086318 273.366598 C 162.941539 273.720452 162.761905 274.05554 162.550099 274.374544 C 162.335612 274.690868 162.094313 274.985745 161.826204 275.256497 C 161.555414 275.524568 161.260493 275.765831 160.944124 275.980288 C 160.625074 276.192064 160.289937 276.371671 159.936033 276.516429 C 159.58481 276.663868 159.220181 276.773777 158.844828 276.848837 C 158.469475 276.923897 158.091441 276.958746 157.710726 276.958746 C 157.327329 276.958746 156.949295 276.923897 156.573942 276.848837 C 156.198589 276.773777 155.836642 276.663868 155.482737 276.516429 C 155.128833 276.371671 154.793696 276.192064 154.477327 275.980288 C 154.158277 275.765831 153.866038 275.524568 153.595248 275.256497 C 153.324457 274.985745 153.083159 274.690868 152.871353 274.374544 C 152.659546 274.05554 152.479913 273.720452 152.332453 273.366598 C 152.187674 273.015426 152.075068 272.650849 152.002678 272.27555 C 151.927608 271.900251 151.890072 271.522272 151.890072 271.13893 C 151.890072 270.75827 151.927608 270.38029 152.002678 270.004991 C 152.075068 269.629692 152.187674 269.265116 152.332453 268.913943 C 152.479913 268.56009 152.659546 268.225002 152.871353 267.905998 C 153.083159 267.589674 153.324457 267.294796 153.595248 267.024045 C 153.866038 266.753293 154.158277 266.51203 154.477327 266.300254 C 154.793696 266.088478 155.128833 265.908871 155.482737 265.764112 C 155.836642 265.616674 156.198589 265.506765 156.573942 265.431705 C 156.949295 265.356645 157.327329 265.319115 157.710726 265.319115 C 158.091441 265.319115 158.469475 265.356645 158.844828 265.431705 C 159.220181 265.506765 159.58481 265.616674 159.936033 265.764112 C 160.289937 265.908871 160.625074 266.088478 160.944124 266.300254 C 161.260493 266.51203 161.555414 266.753293 161.826204 267.024045 C 162.094313 267.294796 162.335612 267.589674 162.550099 267.905998 C 162.761905 268.225002 162.941539 268.56009 163.086318 268.913943 C 163.233778 269.265116 163.343703 269.629692 163.418773 270.004991 C 163.493844 270.38029 163.528698 270.75827 163.528698 271.13893 Z M 163.528698 271.13893 " stroke="#1d4798" stroke-width="4" stroke-opacity="1" stroke-miterlimit="10"></path><path stroke-linecap="butt" transform="matrix(1.456962, 0, 0, 1.457171, 7.475428, -104.877152)" fill="none" stroke-linejoin="miter" d="M 119.990425 246.980397 L 120.800115 272.431031 " stroke="#1d4798" stroke-width="4" stroke-opacity="1" stroke-miterlimit="10"></path><path stroke-linecap="butt" transform="matrix(1.456962, 0, 0, 1.457171, 7.475428, -104.877152)" fill="none" stroke-linejoin="miter" d="M 126.620769 279.55099 C 126.620769 279.93165 126.583233 280.30963 126.508163 280.684929 C 126.433092 281.060228 126.323167 281.424804 126.175707 281.775977 C 126.030928 282.12983 125.851295 282.464919 125.639489 282.783923 C 125.427682 283.100246 125.186384 283.395124 124.915593 283.665875 C 124.644803 283.936627 124.349883 284.177891 124.033514 284.389666 C 123.714464 284.601442 123.379327 284.78105 123.028104 284.925808 C 122.674199 285.073247 122.309571 285.183156 121.934218 285.258216 C 121.561546 285.333275 121.18083 285.370805 120.800115 285.370805 C 120.416719 285.370805 120.038685 285.333275 119.663332 285.258216 C 119.29066 285.183156 118.926031 285.073247 118.572127 284.925808 C 118.220904 284.78105 117.883086 284.601442 117.566717 284.389666 C 117.247667 284.177891 116.955428 283.936627 116.684637 283.665875 C 116.413847 283.395124 116.172548 283.100246 115.960742 282.783923 C 115.748936 282.464919 115.569302 282.12983 115.421842 281.775977 C 115.277063 281.424804 115.167138 281.060228 115.092068 280.684929 C 115.016997 280.30963 114.979462 279.93165 114.979462 279.55099 C 114.979462 279.167649 115.016997 278.789669 115.092068 278.41437 C 115.167138 278.039071 115.277063 277.674495 115.421842 277.323322 C 115.569302 276.969469 115.748936 276.63438 115.960742 276.315376 C 116.172548 275.999053 116.413847 275.704175 116.684637 275.433423 C 116.955428 275.165353 117.247667 274.924089 117.566717 274.709633 C 117.883086 274.497857 118.220904 274.318249 118.572127 274.173491 C 118.926031 274.026052 119.29066 273.916143 119.663332 273.841083 C 120.038685 273.766024 120.416719 273.731174 120.800115 273.731174 C 121.18083 273.731174 121.561546 273.766024 121.934218 273.841083 C 122.309571 273.916143 122.674199 274.026052 123.028104 274.173491 C 123.379327 274.318249 123.714464 274.497857 124.033514 274.709633 C 124.349883 274.924089 124.644803 275.165353 124.915593 275.433423 C 125.186384 275.704175 125.427682 275.999053 125.639489 276.315376 C 125.851295 276.63438 126.030928 276.969469 126.175707 277.323322 C 126.323167 277.674495 126.433092 278.039071 126.508163 278.41437 C 126.583233 278.789669 126.620769 279.167649 126.620769 279.55099 Z M 126.620769 279.55099 " stroke="#1d4798" stroke-width="4" stroke-opacity="1" stroke-miterlimit="10"></path><path stroke-linecap="butt" transform="matrix(1.456962, 0, 0, 1.457171, 7.475428, -104.877152)" fill="none" stroke-linejoin="miter" d="M 180.591175 294.761323 C 180.591175 295.141983 180.55364 295.519963 180.47857 295.895262 C 180.403499 296.270561 180.293574 296.635137 180.146114 296.98631 C 180.001335 297.340163 179.821702 297.675252 179.609895 297.994256 C 179.398089 298.310579 179.156791 298.605457 178.886 298.876208 C 178.61521 299.144279 178.32029 299.385543 178.003921 299.599999 C 177.68487 299.811775 177.349734 299.991383 176.998511 300.136141 C 176.644606 300.28358 176.279978 300.393489 175.904625 300.468548 C 175.529271 300.543608 175.151237 300.581138 174.770522 300.581138 C 174.387126 300.581138 174.009092 300.543608 173.633739 300.468548 C 173.261067 300.393489 172.896438 300.28358 172.542534 300.136141 C 172.188629 299.991383 171.853493 299.811775 171.537124 299.599999 C 171.218074 299.385543 170.925834 299.144279 170.655044 298.876208 C 170.384254 298.605457 170.142955 298.310579 169.931149 297.994256 C 169.719342 297.675252 169.539709 297.340163 169.392249 296.98631 C 169.24747 296.635137 169.137545 296.270561 169.062475 295.895262 C 168.987404 295.519963 168.949869 295.141983 168.949869 294.761323 C 168.949869 294.377982 168.987404 294.000002 169.062475 293.624703 C 169.137545 293.249404 169.24747 292.884828 169.392249 292.533655 C 169.539709 292.179802 169.719342 291.844713 169.931149 291.525709 C 170.142955 291.209386 170.384254 290.914508 170.655044 290.643756 C 170.925834 290.375686 171.218074 290.134422 171.537124 289.919965 C 171.853493 289.70819 172.188629 289.528582 172.542534 289.383824 C 172.896438 289.236385 173.261067 289.126476 173.633739 289.051416 C 174.009092 288.976357 174.387126 288.938827 174.770522 288.938827 C 175.151237 288.938827 175.529271 288.976357 175.904625 289.051416 C 176.279978 289.126476 176.644606 289.236385 176.998511 289.383824 C 177.349734 289.528582 177.68487 289.70819 178.003921 289.919965 C 178.32029 290.134422 178.61521 290.375686 178.886 290.643756 C 179.156791 290.914508 179.398089 291.209386 179.609895 291.525709 C 179.821702 291.844713 180.001335 292.179802 180.146114 292.533655 C 180.293574 292.884828 180.403499 293.249404 180.47857 293.624703 C 180.55364 294.000002 180.591175 294.377982 180.591175 294.761323 Z M 180.591175 294.761323 " stroke="#1d4798" stroke-width="4" stroke-opacity="1" stroke-miterlimit="10"></path></svg>