<svg xmlns="http://www.w3.org/2000/svg" xmlns:xlink="http://www.w3.org/1999/xlink" width="500" viewBox="0 0 375 374.999991" height="500" preserveAspectRatio="xMidYMid meet"><path stroke-linecap="butt" transform="matrix(1.98991, 0, 0, 1.989155, -103.376254, -298.542931)" fill="none" stroke-linejoin="miter" d="M 129.890315 289.909953 C 129.890315 289.909953 129.849091 289.949228 129.829461 289.959047 C 128.710534 290.789724 127.530754 291.549704 126.299935 292.219351 C 123.420172 293.849283 120.249881 295.080569 116.85973 295.830731 C 111.359323 297.040416 105.870695 296.879386 100.760931 295.55973 C 97.539601 294.729054 94.469424 293.440818 91.650515 291.750009 C 87.180699 289.079276 83.309606 285.410947 80.410213 280.970854 C 78.180212 277.569598 76.529305 273.710782 75.600792 269.51027 C 75.219965 267.809642 74.980475 266.120796 74.86073 264.429987 C 74.790061 263.389187 74.760616 262.35035 74.780246 261.319369 C 74.880361 256.339239 76.060141 251.529956 78.140951 247.170378 C 82.559729 237.879764 91.079274 230.649149 101.909303 228.249417 C 120.569854 224.12942 139.039991 235.90028 143.170204 254.560059 C 146.22075 268.359498 140.580969 282.05093 129.890315 289.909953 Z M 129.890315 289.909953 " stroke="#1d4798" stroke-width="4" stroke-opacity="1" stroke-miterlimit="10"></path><path stroke-linecap="butt" transform="matrix(1.98991, 0, 0, 1.989155, -103.376254, -298.542931)" fill="none" stroke-linejoin="miter" d="M 136.060114 296.610349 C 135.769586 296.830292 135.479057 297.050235 135.180677 297.270177 C 132.459919 299.25948 129.489857 300.960108 126.299935 302.289583 C 123.920744 303.289144 121.419846 304.090364 118.809017 304.669677 C 113.550064 305.830268 107.209481 305.730115 100.760931 304.24943 C 97.710385 303.560145 94.640208 302.550765 91.650515 301.229145 C 78.209657 295.280874 66.419707 282.909099 65.730684 263.090693 C 65.66983 260.630084 65.81902 258.200896 66.170402 255.820802 C 66.969355 250.220119 68.859752 244.870799 71.670809 240.069372 C 77.58934 229.91077 87.569378 222.149936 99.950201 219.410471 C 123.500656 214.210398 146.799844 229.070275 152.009722 252.610032 C 154.969969 265.999042 151.450259 279.309501 143.519623 289.250125 C 141.350476 291.97977 138.849578 294.460017 136.060114 296.610349 " stroke="#1d4798" stroke-width="4" stroke-opacity="1" stroke-miterlimit="10"></path><path stroke-linecap="butt" transform="matrix(1.98991, 0, 0, 1.989155, -103.376254, -298.542931)" fill="none" stroke-linejoin="miter" d="M 171.689085 326.459712 C 170.550528 327.610483 169.050774 328.179978 167.560836 328.179978 C 166.070897 328.179978 164.469065 327.569244 163.320694 326.349741 L 135.640026 297.040416 L 136.060114 296.610349 L 143.409693 289.140153 L 143.519623 289.250125 L 171.740124 318.280594 C 173.960309 320.560535 173.940679 324.209227 171.689085 326.459712 Z M 171.689085 326.459712 " stroke="#1d4798" stroke-width="4" stroke-opacity="1" stroke-miterlimit="10"></path><path stroke-linecap="butt" transform="matrix(1.98991, 0, 0, 1.989155, -103.376254, -298.542931)" fill="none" stroke-linejoin="miter" d="M 134.519136 197.620436 L 124.089565 220.930432 " stroke="#1d4798" stroke-width="4" stroke-opacity="1" stroke-miterlimit="10"></path><path stroke-linecap="butt" transform="matrix(1.98991, 0, 0, 1.989155, -103.376254, -298.542931)" fill="none" stroke-linejoin="miter" d="M 120.369625 229.22934 L 115.469906 240.189162 L 114.780883 241.730725 " stroke="#1d4798" stroke-width="4" stroke-opacity="1" stroke-miterlimit="10"></path><path stroke-linecap="butt" transform="matrix(1.98991, 0, 0, 1.989155, -103.376254, -298.542931)" fill="none" stroke-linejoin="miter" d="M 198.729806 218.870433 L 159.249372 190.629401 " stroke="#1d4798" stroke-width="4" stroke-opacity="1" stroke-miterlimit="10"></path><path stroke-linecap="butt" transform="matrix(1.98991, 0, 0, 1.989155, -103.376254, -298.542931)" fill="none" stroke-linejoin="miter" d="M 208.419315 214.249673 L 216.479511 180.030914 " stroke="#1d4798" stroke-width="4" stroke-opacity="1" stroke-miterlimit="10"></path><path stroke-linecap="butt" transform="matrix(1.98991, 0, 0, 1.989155, -103.376254, -298.542931)" fill="none" stroke-linejoin="miter" d="M 220.949328 226.749094 C 220.949328 227.159523 220.929697 227.569951 220.890437 227.978416 C 220.849213 228.386881 220.788359 228.791419 220.709838 229.193992 C 220.629354 229.596566 220.52924 229.995212 220.411458 230.387967 C 220.291713 230.780722 220.152338 231.165621 219.995296 231.54463 C 219.838253 231.923638 219.663544 232.294791 219.471167 232.656126 C 219.276827 233.019424 219.066783 233.370939 218.839072 233.710672 C 218.609397 234.052369 218.365982 234.382283 218.104899 234.698451 C 217.845779 235.016582 217.570955 235.319003 217.280427 235.609642 C 216.989899 235.90028 216.685629 236.175209 216.369582 236.43639 C 216.051571 236.695609 215.721782 236.94108 215.382178 237.168878 C 215.040611 237.396676 214.689229 237.6068 214.326069 237.801213 C 213.964872 237.993663 213.593859 238.168439 213.214995 238.325541 C 212.83613 238.482643 212.449413 238.622071 212.056808 238.739897 C 211.664202 238.859687 211.26767 238.95984 210.865249 239.038391 C 210.462828 239.118906 210.056481 239.179783 209.648171 239.219058 C 209.239861 239.260297 208.829588 239.279935 208.419315 239.279935 C 208.009042 239.279935 207.600732 239.260297 207.192422 239.219058 C 206.784112 239.179783 206.377766 239.118906 205.975345 239.038391 C 205.572924 238.95984 205.176392 238.859687 204.781823 238.739897 C 204.389217 238.622071 204.004464 238.482643 203.625599 238.325541 C 203.246735 238.168439 202.875722 237.993663 202.512562 237.801213 C 202.151365 237.6068 201.799983 237.396676 201.458416 237.168878 C 201.116849 236.94108 200.789023 236.695609 200.471012 236.43639 C 200.153001 236.175209 199.850695 235.90028 199.560167 235.609642 C 199.269639 235.319003 198.994815 235.016582 198.733732 234.698451 C 198.474612 234.382283 198.229233 234.052369 198.001522 233.710672 C 197.773811 233.370939 197.563767 233.019424 197.369427 232.656126 C 197.175087 232.294791 197.000377 231.923638 196.843335 231.54463 C 196.686293 231.165621 196.548881 230.780722 196.429136 230.387967 C 196.311354 229.995212 196.21124 229.596566 196.130756 229.193992 C 196.050271 228.791419 195.991381 228.386881 195.950157 227.978416 C 195.910896 227.569951 195.889303 227.159523 195.889303 226.749094 C 195.889303 226.338665 195.910896 225.9302 195.950157 225.521735 C 195.991381 225.11327 196.050271 224.708733 196.130756 224.306159 C 196.21124 223.903586 196.311354 223.50494 196.429136 223.112185 C 196.548881 222.71943 196.686293 222.33453 196.843335 221.955522 C 197.000377 221.576514 197.175087 221.20536 197.369427 220.844026 C 197.563767 220.480728 197.773811 220.129212 198.001522 219.789479 C 198.229233 219.447783 198.474612 219.117869 198.733732 218.801701 C 198.994815 218.48357 199.269639 218.179185 199.560167 217.89051 C 199.850695 217.599872 200.153001 217.324943 200.471012 217.063761 C 200.789023 216.804543 201.116849 216.559071 201.458416 216.331274 C 201.799983 216.103476 202.151365 215.893352 202.512562 215.698938 C 202.875722 215.506489 203.246735 215.331713 203.625599 215.174611 C 204.004464 215.017509 204.389217 214.878081 204.781823 214.760255 C 205.176392 214.640464 205.572924 214.540312 205.975345 214.459797 C 206.377766 214.381246 206.784112 214.320369 207.192422 214.281094 C 207.600732 214.239854 208.009042 214.220217 208.419315 214.220217 C 208.829588 214.220217 209.239861 214.239854 209.648171 214.281094 C 210.056481 214.320369 210.462828 214.381246 210.865249 214.459797 C 211.26767 214.540312 211.664202 214.640464 212.056808 214.760255 C 212.449413 214.878081 212.83613 215.017509 213.214995 215.174611 C 213.593859 215.331713 213.964872 215.506489 214.326069 215.698938 C 214.689229 215.893352 215.040611 216.103476 215.382178 216.331274 C 215.721782 216.559071 216.051571 216.804543 216.369582 217.063761 C 216.685629 217.324943 216.989899 217.599872 217.280427 217.89051 C 217.570955 218.179185 217.845779 218.48357 218.104899 218.801701 C 218.365982 219.117869 218.609397 219.447783 218.839072 219.789479 C 219.066783 220.129212 219.276827 220.480728 219.471167 220.844026 C 219.663544 221.20536 219.838253 221.576514 219.995296 221.955522 C 220.152338 222.33453 220.291713 222.71943 220.409495 223.112185 C 220.52924 223.50494 220.629354 223.903586 220.709838 224.306159 C 220.788359 224.708733 220.849213 225.11327 220.890437 225.521735 C 220.929697 225.9302 220.949328 226.338665 220.949328 226.749094 Z M 220.949328 226.749094 " stroke="#1d4798" stroke-width="4" stroke-opacity="1" stroke-miterlimit="10"></path><path stroke-linecap="butt" transform="matrix(1.98991, 0, 0, 1.989155, -103.376254, -298.542931)" fill="none" stroke-linejoin="miter" d="M 226.920861 170.779575 C 226.920861 171.081996 226.905157 171.384417 226.875711 171.686839 C 226.846266 171.987296 226.801116 172.287753 226.742225 172.584283 C 226.683335 172.880813 226.608739 173.175379 226.522366 173.466018 C 226.43403 173.754692 226.331952 174.03944 226.216134 174.320259 C 226.100315 174.599115 225.970755 174.874044 225.827454 175.141117 C 225.684153 175.40819 225.529074 175.667408 225.360253 175.918771 C 225.193396 176.170134 225.012797 176.413642 224.82042 176.647331 C 224.628044 176.882984 224.425852 177.106854 224.209918 177.320906 C 223.995948 177.534957 223.772163 177.737226 223.538563 177.929676 C 223.302999 178.122126 223.061547 178.302793 222.808316 178.471677 C 222.557048 178.638598 222.297928 178.7957 222.030957 178.937092 C 221.763985 179.080447 221.489161 179.210056 221.210411 179.325919 C 220.929697 179.441782 220.645058 179.543898 220.35453 179.632268 C 220.065965 179.718674 219.77151 179.793297 219.475093 179.85221 C 219.176713 179.911124 218.878332 179.95629 218.576026 179.985747 C 218.275683 180.015204 217.973376 180.030914 217.669107 180.030914 C 217.3668 180.030914 217.064494 180.015204 216.76415 179.985747 C 216.461844 179.95629 216.163464 179.911124 215.865083 179.85221 C 215.568666 179.793297 215.274212 179.718674 214.985646 179.632268 C 214.695118 179.543898 214.410479 179.441782 214.129766 179.325919 C 213.851016 179.210056 213.576192 179.080447 213.30922 178.937092 C 213.042248 178.7957 212.783128 178.638598 212.531861 178.471677 C 212.27863 178.302793 212.035214 178.122126 211.801614 177.929676 C 211.568013 177.737226 211.344228 177.534957 211.128295 177.320906 C 210.914325 177.106854 210.712133 176.882984 210.519756 176.647331 C 210.327379 176.413642 210.146781 176.170134 209.97796 175.918771 C 209.811103 175.667408 209.65406 175.40819 209.512722 175.141117 C 209.369421 174.874044 209.239861 174.599115 209.124043 174.320259 C 209.008224 174.03944 208.906147 173.754692 208.81781 173.466018 C 208.729474 173.175379 208.656842 172.880813 208.597951 172.584283 C 208.53906 172.287753 208.49391 171.987296 208.464465 171.686839 C 208.43502 171.384417 208.419315 171.081996 208.419315 170.779575 C 208.419315 170.477154 208.43502 170.174733 208.464465 169.874275 C 208.49391 169.571854 208.53906 169.273361 208.597951 168.974867 C 208.656842 168.678337 208.729474 168.385735 208.81781 168.095096 C 208.906147 167.804458 209.008224 167.51971 209.124043 167.240855 C 209.239861 166.960035 209.369421 166.68707 209.512722 166.419997 C 209.65406 166.152924 209.811103 165.893706 209.97796 165.640379 C 210.146781 165.389016 210.327379 165.145508 210.519756 164.911819 C 210.712133 164.67813 210.914325 164.454259 211.128295 164.240208 C 211.344228 164.024193 211.568013 163.821924 211.801614 163.629474 C 212.035214 163.437025 212.27863 163.256357 212.531861 163.089437 C 212.783128 162.920552 213.042248 162.765414 213.30922 162.622058 C 213.576192 162.478703 213.851016 162.349094 214.129766 162.233231 C 214.410479 162.117369 214.695118 162.017216 214.985646 161.928846 C 215.274212 161.840476 215.568666 161.765853 215.865083 161.70694 C 216.163464 161.648027 216.461844 161.604824 216.76415 161.575367 C 217.064494 161.543947 217.3668 161.5302 217.669107 161.5302 C 217.973376 161.5302 218.275683 161.543947 218.576026 161.575367 C 218.878332 161.604824 219.176713 161.648027 219.475093 161.70694 C 219.77151 161.765853 220.065965 161.840476 220.35453 161.928846 C 220.645058 162.017216 220.929697 162.117369 221.210411 162.233231 C 221.489161 162.349094 221.763985 162.478703 222.030957 162.622058 C 222.297928 162.765414 222.557048 162.920552 222.808316 163.089437 C 223.061547 163.256357 223.302999 163.437025 223.538563 163.629474 C 223.772163 163.821924 223.995948 164.024193 224.209918 164.240208 C 224.425852 164.454259 224.628044 164.67813 224.82042 164.911819 C 225.012797 165.145508 225.193396 165.389016 225.360253 165.640379 C 225.529074 165.893706 225.684153 166.152924 225.827454 166.419997 C 225.970755 166.68707 226.100315 166.960035 226.216134 167.240855 C 226.331952 167.51971 226.43403 167.804458 226.522366 168.095096 C 226.608739 168.385735 226.683335 168.678337 226.742225 168.974867 C 226.801116 169.273361 226.846266 169.571854 226.875711 169.874275 C 226.905157 170.174733 226.920861 170.477154 226.920861 170.779575 Z M 226.920861 170.779575 " stroke="#1d4798" stroke-width="4" stroke-opacity="1" stroke-miterlimit="10"></path><path stroke-linecap="butt" transform="matrix(1.98991, 0, 0, 1.989155, -103.376254, -298.542931)" fill="none" stroke-linejoin="miter" d="M 161.799346 183.850454 C 161.799346 184.398347 161.773827 184.94624 161.718862 185.492169 C 161.66586 186.038098 161.585376 186.5801 161.47741 187.118174 C 161.371406 187.656248 161.23792 188.186467 161.078915 188.712758 C 160.919909 189.237086 160.735385 189.753558 160.525341 190.260212 C 160.315297 190.766865 160.081696 191.261736 159.822576 191.746789 C 159.563457 192.229877 159.282744 192.699219 158.976511 193.154814 C 158.672242 193.612374 158.346379 194.052259 157.99696 194.476434 C 157.649504 194.900609 157.282417 195.307111 156.893738 195.693974 C 156.507021 196.082801 156.100674 196.450027 155.67666 196.797615 C 155.252646 197.145203 154.810964 197.473153 154.355541 197.777538 C 153.900119 198.081923 153.428992 198.362743 152.946087 198.621961 C 152.461219 198.881179 151.966536 199.114868 151.460074 199.324992 C 150.953613 199.535116 150.437336 199.719711 149.913207 199.878776 C 149.387116 200.037842 148.855135 200.171379 148.317265 200.277422 C 147.779395 200.38543 147.237599 200.465945 146.691877 200.518966 C 146.146155 200.573952 145.59847 200.599481 145.050785 200.599481 C 144.501137 200.599481 143.953452 200.573952 143.40773 200.518966 C 142.862008 200.465945 142.320212 200.38543 141.782343 200.277422 C 141.244473 200.171379 140.712492 200.037842 140.188363 199.878776 C 139.662272 199.719711 139.145995 199.535116 138.639534 199.324992 C 138.133072 199.114868 137.638389 198.881179 137.153521 198.621961 C 136.670616 198.362743 136.199489 198.081923 135.744066 197.777538 C 135.288644 197.473153 134.848925 197.145203 134.422948 196.797615 C 133.998934 196.450027 133.59455 196.082801 133.20587 195.693974 C 132.81719 195.307111 132.450104 194.900609 132.102648 194.476434 C 131.753229 194.052259 131.427366 193.612374 131.123097 193.154814 C 130.818827 192.699219 130.536151 192.229877 130.277031 191.746789 C 130.019874 191.261736 129.784311 190.766865 129.574267 190.260212 C 129.364223 189.753558 129.179698 189.237086 129.020693 188.712758 C 128.861688 188.186467 128.728202 187.656248 128.622198 187.118174 C 128.514231 186.5801 128.433747 186.038098 128.380745 185.492169 C 128.327744 184.94624 128.300261 184.398347 128.300261 183.850454 C 128.300261 183.300597 128.327744 182.754668 128.380745 182.208739 C 128.433747 181.66281 128.514231 181.120808 128.622198 180.582734 C 128.728202 180.04466 128.861688 179.512477 129.020693 178.98815 C 129.179698 178.461858 129.364223 177.94735 129.574267 177.440696 C 129.784311 176.934042 130.019874 176.437208 130.277031 175.954119 C 130.536151 175.471031 130.818827 174.999725 131.123097 174.54413 C 131.427366 174.088534 131.753229 173.648649 132.102648 173.224474 C 132.450104 172.800298 132.81719 172.393797 133.20587 172.006934 C 133.59455 171.618107 133.998934 171.250881 134.422948 170.901329 C 134.848925 170.553741 135.288644 170.227755 135.744066 169.92337 C 136.199489 169.618985 136.670616 169.336201 137.153521 169.076983 C 137.638389 168.819729 138.133072 168.584076 138.639534 168.375916 C 139.145995 168.165792 139.662272 167.981197 140.188363 167.822132 C 140.712492 167.661102 141.244473 167.529529 141.782343 167.421522 C 142.320212 167.315478 142.862008 167.234963 143.40773 167.179978 C 143.953452 167.126956 144.501137 167.099463 145.050785 167.099463 C 145.59847 167.099463 146.146155 167.126956 146.691877 167.179978 C 147.237599 167.234963 147.779395 167.315478 148.317265 167.421522 C 148.855135 167.529529 149.387116 167.661102 149.913207 167.822132 C 150.437336 167.981197 150.953613 168.165792 151.460074 168.375916 C 151.966536 168.584076 152.461219 168.819729 152.946087 169.076983 C 153.428992 169.336201 153.900119 169.618985 154.355541 169.92337 C 154.810964 170.227755 155.252646 170.553741 155.67666 170.901329 C 156.100674 171.250881 156.507021 171.618107 156.893738 172.006934 C 157.282417 172.393797 157.649504 172.800298 157.99696 173.224474 C 158.346379 173.648649 158.672242 174.088534 158.976511 174.54413 C 159.282744 174.999725 159.563457 175.471031 159.822576 175.954119 C 160.081696 176.437208 160.315297 176.934042 160.525341 177.440696 C 160.735385 177.94735 160.919909 178.461858 161.078915 178.98815 C 161.23792 179.512477 161.371406 180.04466 161.47741 180.582734 C 161.585376 181.120808 161.66586 181.66281 161.718862 182.208739 C 161.773827 182.754668 161.799346 183.300597 161.799346 183.850454 Z M 161.799346 183.850454 " stroke="#1d4798" stroke-width="4" stroke-opacity="1" stroke-miterlimit="10"></path><path stroke-linecap="butt" transform="matrix(1.98991, 0, 0, 1.989155, -103.376254, -298.542931)" fill="none" stroke-linejoin="miter" d="M 130.310403 260.219656 C 130.310403 260.905013 130.277031 261.588406 130.208325 262.271799 C 130.141582 262.953229 130.041468 263.630731 129.907982 264.302342 C 129.774496 264.975916 129.607638 265.639672 129.409373 266.295572 C 129.209144 266.951473 128.979469 267.59559 128.716423 268.229889 C 128.455341 268.862225 128.160886 269.482777 127.83895 270.085656 C 127.51505 270.690498 127.163668 271.277666 126.78284 271.847161 C 126.402013 272.418619 125.993703 272.968476 125.559873 273.498695 C 125.124081 274.02695 124.664732 274.535567 124.179864 275.020619 C 123.694996 275.503708 123.188535 275.965195 122.658517 276.399189 C 122.128499 276.833183 121.578851 277.241648 121.00761 277.62262 C 120.438331 278.003592 119.851386 278.355107 119.246773 278.67913 C 118.64216 279.001189 118.023806 279.293791 117.389748 279.556937 C 116.755689 279.820083 116.111816 280.049844 115.456164 280.248185 C 114.800513 280.44849 114.135046 280.613447 113.46369 280.746984 C 112.790371 280.882484 112.113126 280.982637 111.431956 281.049405 C 110.748822 281.116173 110.065688 281.149558 109.380591 281.149558 C 108.695493 281.149558 108.010396 281.116173 107.329225 281.049405 C 106.646092 280.982637 105.968847 280.882484 105.297491 280.746984 C 104.624172 280.613447 103.960668 280.44849 103.305017 280.248185 C 102.647402 280.049844 102.003529 279.820083 101.36947 279.556937 C 100.737375 279.293791 100.119021 279.001189 99.514408 278.67913 C 98.909795 278.355107 98.320887 278.003592 97.751608 277.62262 C 97.18233 277.241648 96.632682 276.833183 96.102664 276.399189 C 95.572647 275.965195 95.064222 275.503708 94.579354 275.020619 C 94.096449 274.535567 93.635137 274.02695 93.201308 273.498695 C 92.765515 272.968476 92.357205 272.418619 91.976378 271.847161 C 91.59555 271.277666 91.244168 270.690498 90.922231 270.085656 C 90.598332 269.482777 90.30584 268.862225 90.042795 268.229889 C 89.781712 267.59559 89.550074 266.951473 89.351808 266.295572 C 89.15158 265.639672 88.986685 264.975916 88.851236 264.302342 C 88.71775 263.630731 88.617636 262.953229 88.550893 262.271799 C 88.48415 261.588406 88.450778 260.905013 88.450778 260.219656 C 88.450778 259.534299 88.48415 258.850905 88.550893 258.169476 C 88.617636 257.486083 88.71775 256.808581 88.851236 256.13697 C 88.986685 255.465359 89.15158 254.79964 89.351808 254.143739 C 89.550074 253.487839 89.781712 252.843721 90.042795 252.211386 C 90.30584 251.577087 90.598332 250.958498 90.922231 250.353656 C 91.244168 249.748814 91.59555 249.161645 91.976378 248.592151 C 92.357205 248.022656 92.765515 247.4728 93.201308 246.942581 C 93.635137 246.412362 94.096449 245.905708 94.579354 245.420656 C 95.064222 244.935604 95.572647 244.476081 96.102664 244.040123 C 96.632682 243.606129 97.18233 243.197664 97.751608 242.816692 C 98.320887 242.43572 98.909795 242.084204 99.514408 241.762145 C 100.119021 241.438123 100.737375 241.14552 101.36947 240.882375 C 102.003529 240.621193 102.647402 240.389467 103.305017 240.191126 C 103.960668 239.992785 104.624172 239.825864 105.297491 239.692328 C 105.968847 239.558791 106.646092 239.458638 107.329225 239.389906 C 108.010396 239.323138 108.695493 239.289754 109.380591 239.289754 C 110.065688 239.289754 110.748822 239.323138 111.431956 239.389906 C 112.113126 239.458638 112.790371 239.558791 113.46369 239.692328 C 114.135046 239.825864 114.800513 239.992785 115.456164 240.191126 C 116.111816 240.389467 116.755689 240.621193 117.389748 240.882375 C 118.023806 241.14552 118.64216 241.438123 119.246773 241.762145 C 119.851386 242.084204 120.438331 242.43572 121.00761 242.816692 C 121.578851 243.197664 122.128499 243.606129 122.658517 244.040123 C 123.188535 244.476081 123.694996 244.935604 124.179864 245.420656 C 124.664732 245.905708 125.124081 246.412362 125.559873 246.942581 C 125.993703 247.4728 126.402013 248.022656 126.78284 248.592151 C 127.163668 249.161645 127.51505 249.748814 127.83895 250.353656 C 128.160886 250.958498 128.455341 251.577087 128.716423 252.211386 C 128.979469 252.843721 129.209144 253.487839 129.409373 254.143739 C 129.607638 254.79964 129.774496 255.465359 129.907982 256.13697 C 130.041468 256.808581 130.141582 257.486083 130.208325 258.169476 C 130.277031 258.850905 130.310403 259.534299 130.310403 260.219656 Z M 130.310403 260.219656 " stroke="#1d4798" stroke-width="4" stroke-opacity="1" stroke-miterlimit="10"></path></svg>