<svg xmlns="http://www.w3.org/2000/svg" xmlns:xlink="http://www.w3.org/1999/xlink" width="500" viewBox="0 0 375 374.999991" height="500" preserveAspectRatio="xMidYMid meet"><path stroke-linecap="butt" transform="matrix(1.937745, 0, 0, 1.937113, -75.615173, -310.81287)" fill="none" stroke-linejoin="miter" d="M 86.959734 253.800898 L 54.040511 278.299744 C 53.379305 278.799844 52.990241 279.539912 52.990241 280.330392 L 52.990241 308.749376 C 52.990241 310.18918 54.260242 311.360785 55.820528 311.360785 L 88.739751 311.360785 C 90.300038 311.360785 91.570038 310.18918 91.570038 308.749376 L 91.570038 255.829529 C 91.570038 254.819247 90.949149 253.909791 89.959355 253.48027 C 88.97964 253.040666 87.810433 253.169724 86.959734 253.800898 Z M 86.959734 253.800898 " stroke="#1d4798" stroke-width="4" stroke-opacity="1" stroke-miterlimit="10"></path><path stroke-linecap="butt" transform="matrix(1.937745, 0, 0, 1.937113, -75.615173, -310.81287)" fill="none" stroke-linejoin="miter" d="M 122.660863 242.260286 L 139.759507 259.249567 C 140.289682 259.779915 140.590047 260.489734 140.590047 261.239884 L 140.590047 271.439503 " stroke="#1d4798" stroke-width="4" stroke-opacity="1" stroke-miterlimit="10"></path><path stroke-linecap="butt" transform="matrix(1.937745, 0, 0, 1.937113, -75.615173, -310.81287)" fill="none" stroke-linejoin="miter" d="M 139.360364 281.179352 L 139.360364 308.670732 C 139.360364 310.160949 138.100442 311.370868 136.530077 311.370868 L 103.620933 311.370868 C 102.050567 311.370868 100.790646 310.160949 100.790646 308.670732 L 100.11936 246.069515 C 100.11936 245.139894 100.619297 244.280851 101.449837 243.790834 L 110.609968 235.589598 C 111.64008 234.980606 112.960477 235.069333 113.879716 235.76907 " stroke="#1d4798" stroke-width="4" stroke-opacity="1" stroke-miterlimit="10"></path><path stroke-linecap="butt" transform="matrix(1.937745, 0, 0, 1.937113, -75.615173, -310.81287)" fill="none" stroke-linejoin="miter" d="M 150.33075 275.510881 L 150.33075 262.970069 C 150.33075 262.449804 150.55048 261.949704 150.939544 261.580678 L 173.989048 240.130828 C 174.599858 239.56015 175.509017 239.400844 176.299239 239.69929 C 177.089462 240.009836 177.599478 240.729738 177.599478 241.520219 L 177.599478 269.860558 " stroke="#1d4798" stroke-width="4" stroke-opacity="1" stroke-miterlimit="10"></path><path stroke-linecap="butt" transform="matrix(1.937745, 0, 0, 1.937113, -75.615173, -310.81287)" fill="none" stroke-linejoin="miter" d="M 174.009207 282.240048 L 174.009207 308.789707 C 174.009207 309.810072 173.130285 310.630801 172.029618 310.630801 L 150.449687 310.630801 C 149.359099 310.630801 148.470098 309.810072 148.470098 308.789707 L 148.470098 284.200117 " stroke="#1d4798" stroke-width="4" stroke-opacity="1" stroke-miterlimit="10"></path><path stroke-linecap="butt" transform="matrix(1.937745, 0, 0, 1.937113, -75.615173, -310.81287)" fill="none" stroke-linejoin="miter" d="M 52.990241 258.860377 L 111.150223 216.739058 C 112.950398 215.440411 115.450082 215.700544 116.939813 217.339985 L 119.37902 220.019955 " stroke="#1d4798" stroke-width="4" stroke-opacity="1" stroke-miterlimit="10"></path><path stroke-linecap="butt" transform="matrix(1.937745, 0, 0, 1.937113, -75.615173, -310.81287)" fill="none" stroke-linejoin="miter" d="M 164.349138 220.939494 L 175.150191 221.929611 C 175.150191 221.929611 175.210667 221.980024 175.180429 222.020355 L 150.280353 243.550866 C 148.359225 245.210472 145.470478 245.031001 143.77916 243.169742 L 126.180579 223.839267 " stroke="#1d4798" stroke-width="4" stroke-opacity="1" stroke-miterlimit="10"></path><path stroke-linecap="butt" transform="matrix(1.937745, 0, 0, 1.937113, -75.615173, -310.81287)" fill="none" stroke-linejoin="miter" d="M 175.259048 232.439776 L 175.259048 221.929611 " stroke="#1d4798" stroke-width="4" stroke-opacity="1" stroke-miterlimit="10"></path><path stroke-linecap="butt" transform="matrix(1.937745, 0, 0, 1.937113, -75.615173, -310.81287)" fill="none" stroke-linejoin="miter" d="M 177.599478 269.860558 C 177.599478 269.860558 177.559161 269.900889 177.541018 269.910972 C 176.420192 270.739766 175.240906 271.499999 174.009207 272.169487 C 171.130538 273.800862 167.959569 275.030946 164.570884 275.779079 C 159.069564 276.988999 153.580339 276.829693 148.470098 275.510881 C 145.250748 274.68007 142.180572 273.389489 139.360364 271.699635 C 134.889155 269.029747 131.020693 265.359659 128.11985 260.919256 C 125.890293 257.519383 124.239293 253.659741 123.309975 249.459305 C 122.93099 247.759368 122.689086 246.069515 122.570149 244.379661 C 122.499593 243.339131 122.469355 242.300617 122.489514 241.270169 C 122.590308 236.289335 123.769594 231.479906 125.849976 227.120164 C 130.270788 217.830002 138.789871 210.600735 149.619147 208.199045 C 168.280093 204.079271 186.74953 215.849767 190.880056 234.510754 C 193.930074 248.309882 188.289658 262.000117 177.599478 269.860558 Z M 177.599478 269.860558 " stroke="#1d4798" stroke-width="4" stroke-opacity="1" stroke-miterlimit="10"></path><path stroke-linecap="butt" transform="matrix(1.937745, 0, 0, 1.937113, -75.615173, -310.81287)" fill="none" stroke-linejoin="miter" d="M 183.770069 276.559477 C 183.479783 276.779279 183.189497 276.999081 182.889132 277.2209 C 180.169718 279.2092 177.200335 280.909137 174.009207 282.240048 C 171.630475 283.240248 169.130791 284.040811 166.520235 284.619555 C 161.260819 285.779061 154.920895 285.680251 148.470098 284.200117 C 145.420081 283.510463 142.349905 282.50018 139.360364 281.179352 C 125.920532 275.230583 114.129684 262.859159 113.440255 243.040684 C 113.379779 240.580515 113.53097 238.150594 113.879716 235.76907 C 114.680018 230.169161 116.570908 224.819301 119.37902 220.019955 C 125.299642 209.860668 135.280235 202.099036 147.659717 199.360586 C 171.209158 194.15995 194.510645 209.019774 199.719664 232.560767 C 202.680983 245.950539 199.159251 259.25965 191.230818 269.199136 C 189.059722 271.92952 186.560038 274.409854 183.770069 276.559477 " stroke="#1d4798" stroke-width="4" stroke-opacity="1" stroke-miterlimit="10"></path><path stroke-linecap="butt" transform="matrix(1.937745, 0, 0, 1.937113, -75.615173, -310.81287)" fill="none" stroke-linejoin="miter" d="M 219.400642 306.410199 C 218.259657 307.559623 216.759847 308.130301 215.270116 308.130301 C 213.780385 308.130301 212.179781 307.519292 211.030733 306.29929 L 183.350767 276.991015 L 183.770069 276.559477 L 191.119945 269.090243 L 191.230818 269.199136 L 219.449023 298.229129 C 221.670516 300.509827 221.650358 304.15975 219.400642 306.410199 Z M 219.400642 306.410199 " stroke="#1d4798" stroke-width="4" stroke-opacity="1" stroke-miterlimit="10"></path></svg>