<svg xmlns="http://www.w3.org/2000/svg" xmlns:xlink="http://www.w3.org/1999/xlink" width="500" viewBox="0 0 375 374.999991" height="500" preserveAspectRatio="xMidYMid meet"><path stroke-linecap="butt" transform="matrix(1.76686, 0, 0, 1.767495, -63.290595, -287.411787)" fill="none" stroke-linejoin="miter" d="M 167.430197 286.160236 L 126.220089 286.160236 " stroke="#1d4798" stroke-width="4" stroke-opacity="1" stroke-miterlimit="10"></path><path stroke-linecap="butt" transform="matrix(1.76686, 0, 0, 1.767495, -63.290595, -287.411787)" fill="none" stroke-linejoin="miter" d="M 155.10917 302.209609 L 168.349907 285.950281 L 155.10917 270.110862 " stroke="#1d4798" stroke-width="4" stroke-opacity="1" stroke-miterlimit="10"></path><path stroke-linecap="butt" transform="matrix(1.76686, 0, 0, 1.767495, -63.290595, -287.411787)" fill="none" stroke-linejoin="miter" d="M 232.309587 255.659354 L 184.959969 255.659354 C 184.170698 255.659354 183.540608 256.300268 183.540608 257.080415 L 183.540608 315.229006 C 183.540608 316.020203 184.179541 316.650067 184.959969 316.650067 L 219.369525 316.650067 C 219.69894 316.650067 219.990771 316.530725 220.220699 316.34066 C 220.499265 316.34066 220.780042 316.230158 220.998916 316.029043 L 233.189502 304.539 C 233.41943 304.320206 233.529972 304.019639 233.541026 303.719072 C 233.660412 303.520168 233.728948 303.290323 233.728948 303.040587 L 233.728948 257.089255 C 233.728948 256.300268 233.090014 255.670404 232.309587 255.670404 Z M 232.309587 255.659354 " stroke="#1d4798" stroke-width="4" stroke-opacity="1" stroke-miterlimit="10"></path><path stroke-linecap="butt" transform="matrix(1.76686, 0, 0, 1.767495, -63.290595, -287.411787)" fill="none" stroke-linejoin="miter" d="M 233.728948 303.009647 L 223.559071 303.009647 C 221.35044 303.009647 219.550814 304.799786 219.550814 307.020885 L 219.550814 316.380441 " stroke="#1d4798" stroke-width="4" stroke-opacity="1" stroke-miterlimit="10"></path><path stroke-linecap="butt" transform="matrix(1.76686, 0, 0, 1.767495, -63.290595, -287.411787)" fill="none" stroke-linejoin="miter" d="M 197.11076 269.330715 L 221.50962 269.330715 " stroke="#1d4798" stroke-width="4" stroke-opacity="1" stroke-miterlimit="10"></path><path stroke-linecap="butt" transform="matrix(1.76686, 0, 0, 1.767495, -63.290595, -287.411787)" fill="none" stroke-linejoin="miter" d="M 197.11076 279.09029 L 221.50962 279.09029 " stroke="#1d4798" stroke-width="4" stroke-opacity="1" stroke-miterlimit="10"></path><path stroke-linecap="butt" transform="matrix(1.76686, 0, 0, 1.767495, -63.290595, -287.411787)" fill="none" stroke-linejoin="miter" d="M 99.869054 217.299539 C 99.420253 217.208927 98.9405 217.310589 98.560236 217.569165 C 98.179971 217.829951 97.910248 218.229969 97.830657 218.689659 L 96.360447 226.389469 C 96.179158 227.33979 96.800405 228.25033 97.751067 228.429344 L 100.720229 228.999537 C 100.859512 230.630552 101.188928 232.230628 101.710686 233.779872 L 99.199169 235.479399 C 98.818904 235.740185 98.549181 236.140204 98.469591 236.599894 C 98.378946 237.050744 98.469591 237.530324 98.739314 237.910453 L 103.149945 244.399156 C 103.410824 244.779284 103.810987 245.04891 104.259788 245.130682 C 104.7108 245.219084 105.179499 245.119632 105.570818 244.861056 L 108.080124 243.159318 C 109.32925 244.220142 110.699973 245.119632 112.159129 245.840107 L 111.590942 248.819253 C 111.409653 249.760734 112.0309 250.680114 112.979352 250.859128 L 120.679717 252.33102 C 120.790259 252.350911 120.900801 252.359751 121.009132 252.359751 C 121.829355 252.359751 122.558933 251.780718 122.720325 250.9409 L 123.290722 247.970594 C 124.920113 247.829151 126.520763 247.499854 128.070564 246.980493 L 129.770702 249.488898 C 130.029371 249.869026 130.429533 250.140862 130.889388 250.220424 C 131.3404 250.311036 131.809099 250.209374 132.200418 249.950798 L 138.689242 245.539541 C 139.489567 245.000289 139.690753 243.910735 139.149097 243.119538 L 137.440115 240.608922 C 138.499109 239.360245 139.398922 237.990015 140.130711 236.529172 L 143.099873 237.099365 C 144.039481 237.280589 144.959191 236.659565 145.140481 235.709244 L 146.610691 228.009435 C 146.699125 227.560795 146.599637 227.090054 146.340968 226.698876 C 146.080089 226.320958 145.679926 226.049122 145.220071 225.96956 L 142.250909 225.399367 C 142.109415 223.770561 141.78 222.170486 141.260452 220.619032 L 143.769758 218.919505 C 144.570083 218.380253 144.769059 217.290699 144.229613 216.499501 L 139.818982 210.010798 C 139.560314 209.63067 139.160151 209.361044 138.700296 209.279272 C 138.249284 209.19087 137.780585 209.290322 137.389266 209.548898 L 134.87996 211.250636 C 133.630833 210.189812 132.260111 209.290322 130.800955 208.561006 L 131.369141 205.590701 C 131.55043 204.64038 130.929184 203.72984 129.980732 203.550826 L 122.280367 202.078934 C 121.829355 201.990532 121.360656 202.089984 120.969337 202.35077 C 120.589072 202.609345 120.319349 203.009364 120.239759 203.469054 L 119.669362 206.43936 C 118.039971 206.580803 116.439321 206.9101 114.88952 207.429461 L 113.189382 204.921056 C 112.930713 204.540928 112.530551 204.269092 112.070695 204.18953 C 111.619683 204.098918 111.150985 204.20058 110.759666 204.459156 L 104.270842 208.870413 C 103.890577 209.128989 103.620854 209.529008 103.539053 209.979858 C 103.45062 210.430708 103.539053 210.899238 103.810987 211.290416 L 105.508914 213.801032 C 104.449921 215.049709 103.550108 216.419939 102.820529 217.880782 L 99.840313 217.310589 Z M 99.869054 217.299539 " stroke="#1d4798" stroke-width="4" stroke-opacity="1" stroke-miterlimit="10"></path><path stroke-linecap="butt" transform="matrix(1.76686, 0, 0, 1.767495, -63.290595, -287.411787)" fill="none" stroke-linejoin="miter" d="M 119.14097 239.499478 C 119.930241 239.649761 120.719512 239.720483 121.491096 239.720483 C 127.380781 239.720483 132.649219 235.53023 133.801068 229.540998 C 135.101044 222.749519 130.63072 216.179044 123.839011 214.879536 C 120.549277 214.249672 117.219748 214.939207 114.449562 216.819958 C 111.679376 218.70071 109.809003 221.549462 109.178913 224.840225 C 108.551034 228.130987 109.240817 231.459321 111.131087 234.230722 C 113.010303 236.999913 115.86008 238.869614 119.149814 239.499478 Z M 119.14097 239.499478 " stroke="#1d4798" stroke-width="4" stroke-opacity="1" stroke-miterlimit="10"></path><path stroke-linecap="butt" transform="matrix(1.76686, 0, 0, 1.767495, -63.290595, -287.411787)" fill="none" stroke-linejoin="miter" d="M 52.809057 273.430355 C 52.220972 273.319853 51.61078 273.439195 51.119973 273.779543 C 50.620322 274.11989 50.279852 274.639252 50.16931 275.220495 L 48.270196 285.178974 C 48.040269 286.398921 48.840594 287.579087 50.060979 287.819982 L 53.910056 288.549298 C 54.089134 290.651055 54.520249 292.71966 55.198977 294.739645 L 51.960093 296.940853 C 51.460442 297.27899 51.119973 297.800562 51.009431 298.379595 C 50.901099 298.969678 51.020485 299.579651 51.360955 300.070282 L 57.060507 308.459627 C 57.400977 308.950258 57.920525 309.299445 58.499766 309.409948 C 59.090061 309.52045 59.700253 309.401108 60.19106 309.06076 L 63.429945 306.859552 C 65.050493 308.229782 66.819167 309.390057 68.709437 310.329328 L 67.979859 314.179233 C 67.749932 315.39918 68.550257 316.579346 69.770642 316.820241 L 79.730488 318.720883 C 79.869771 318.749613 80.009054 318.760664 80.150548 318.760664 C 81.209542 318.760664 82.160204 318.009247 82.35918 316.930743 L 83.099812 313.080839 C 85.200113 312.899615 87.269462 312.470865 89.290172 311.79017 L 91.489961 315.030101 C 91.83043 315.520732 92.349978 315.86992 92.929219 315.980422 C 93.519514 316.090925 94.129707 315.969372 94.620514 315.629025 L 103.010662 309.929309 C 104.040915 309.230934 104.310637 307.829763 103.6098 306.79988 L 101.398958 303.559949 C 102.76968 301.939983 103.930372 300.169734 104.881035 298.280143 L 108.730112 299.009459 C 109.950497 299.239304 111.131087 298.439266 111.369858 297.219319 L 113.268972 287.26084 C 113.379514 286.670757 113.260129 286.060783 112.919659 285.570153 C 112.579189 285.079522 112.059641 284.730334 111.4804 284.619832 L 107.629112 283.890516 C 107.450034 281.790969 107.01892 279.709103 106.340191 277.700169 L 109.579076 275.498961 C 110.609328 274.800585 110.879051 273.399415 110.180425 272.369532 L 104.480872 263.980187 C 104.140403 263.480716 103.620854 263.140369 103.039403 263.029866 C 102.449108 262.919364 101.838915 263.040916 101.350319 263.379054 L 98.109224 265.580262 C 96.490887 264.210032 94.720002 263.049757 92.829731 262.110486 L 93.570364 258.260581 C 93.800291 257.040634 92.999966 255.860468 91.779581 255.619573 L 81.819735 253.718931 C 81.22944 253.610639 80.630301 253.729981 80.130651 254.070329 C 79.631 254.410676 79.29053 254.930038 79.179988 255.50907 L 78.45041 259.358975 C 76.35011 259.540199 74.269707 259.968949 72.260051 260.649644 L 70.060262 257.409712 C 69.719792 256.919082 69.200244 256.569894 68.621004 256.459391 C 68.030709 256.351099 67.429359 256.470442 66.929709 256.810789 L 58.539561 262.510505 C 58.050965 262.850852 57.699441 263.370214 57.588898 263.949246 C 57.480567 264.539329 57.599953 265.149303 57.940422 265.639934 L 60.140211 268.879865 C 58.769488 270.499831 57.611007 272.27008 56.669188 274.159671 L 52.820111 273.430355 Z M 52.809057 273.430355 " stroke="#1d4798" stroke-width="4" stroke-opacity="1" stroke-miterlimit="10"></path><path stroke-linecap="butt" transform="matrix(1.76686, 0, 0, 1.767495, -63.290595, -287.411787)" fill="none" stroke-linejoin="miter" d="M 77.729676 302.141098 C 78.751085 302.340002 79.770283 302.430614 80.780638 302.430614 C 88.399202 302.430614 95.219652 297.009365 96.700917 289.260934 C 98.370103 280.48041 92.599804 271.980563 83.820547 270.300926 C 79.569097 269.489838 75.24911 270.380488 71.669756 272.820382 C 68.090401 275.249225 65.669529 278.940007 64.86036 283.18993 C 64.048981 287.439854 64.93995 291.760499 67.380721 295.340778 C 69.810437 298.921057 73.500333 301.34106 77.749573 302.149938 Z M 77.729676 302.141098 " stroke="#1d4798" stroke-width="4" stroke-opacity="1" stroke-miterlimit="10"></path></svg>