<svg xmlns="http://www.w3.org/2000/svg" xmlns:xlink="http://www.w3.org/1999/xlink" width="500" viewBox="0 0 375 374.999991" height="500" preserveAspectRatio="xMidYMid meet"><path stroke-linecap="butt" transform="matrix(2.033335, 0, 0, 2.033487, -93.404901, -329.697694)" fill="none" stroke-linejoin="miter" d="M 86.960072 288.099335 L 86.960072 301.250239 C 86.960072 302.519995 87.989784 303.549631 89.259634 303.549631 L 99.149482 303.549631 " stroke="#1d4798" stroke-width="4" stroke-opacity="1" stroke-miterlimit="10"></path><path stroke-linecap="butt" transform="matrix(2.033335, 0, 0, 2.033487, -93.404901, -329.697694)" fill="none" stroke-linejoin="miter" d="M 111.690455 303.549631 L 144.869858 303.549631 C 145.390478 303.549631 145.870754 303.359455 146.239606 303.040576 L 146.249212 303.040576 C 146.710277 303.040576 147.159815 302.86961 147.509457 302.539205 L 167.210387 283.980793 C 167.57924 283.619652 167.759823 283.139412 167.769429 282.649566 C 167.959618 282.330687 168.080648 281.950336 168.080648 281.539251 L 168.080648 262.239348 " stroke="#1d4798" stroke-width="4" stroke-opacity="1" stroke-miterlimit="10"></path><path stroke-linecap="butt" transform="matrix(2.033335, 0, 0, 2.033487, -93.404901, -329.697694)" fill="none" stroke-linejoin="miter" d="M 86.960072 275.549692 L 86.960072 207.280631 C 86.960072 206.010875 87.989784 204.979319 89.250029 204.979319 L 126.029582 204.979319 " stroke="#1d4798" stroke-width="4" stroke-opacity="1" stroke-miterlimit="10"></path><path stroke-linecap="butt" transform="matrix(2.033335, 0, 0, 2.033487, -93.404901, -329.697694)" fill="none" stroke-linejoin="miter" d="M 169.680928 254.000342 L 169.680928 206.2606 C 169.680928 204.960109 168.630084 203.909343 167.329496 203.909343 L 136.780086 203.909343 " stroke="#1d4798" stroke-width="4" stroke-opacity="1" stroke-miterlimit="10"></path><path stroke-linecap="butt" transform="matrix(2.033335, 0, 0, 2.033487, -93.404901, -329.697694)" fill="none" stroke-linejoin="miter" d="M 168.080648 281.500831 L 151.639832 281.500831 C 148.060814 281.500831 145.159945 284.399563 145.159945 287.980235 L 145.159945 303.10973 " stroke="#1d4798" stroke-width="4" stroke-opacity="1" stroke-miterlimit="10"></path><path stroke-linecap="butt" transform="matrix(2.033335, 0, 0, 2.033487, -93.404901, -329.697694)" fill="none" stroke-linejoin="miter" d="M 150.070289 224.690308 L 128.640364 224.690308 " stroke="#1d4798" stroke-width="4" stroke-opacity="1" stroke-miterlimit="10"></path><path stroke-linecap="butt" transform="matrix(2.033335, 0, 0, 2.033487, -93.404901, -329.697694)" fill="none" stroke-linejoin="miter" d="M 120.629356 227.070379 L 108.89909 227.070379 " stroke="#1d4798" stroke-width="4" stroke-opacity="1" stroke-miterlimit="10"></path><path stroke-linecap="butt" transform="matrix(2.033335, 0, 0, 2.033487, -93.404901, -329.697694)" fill="none" stroke-linejoin="miter" d="M 150.070289 241.859864 L 134.989616 241.859864 " stroke="#1d4798" stroke-width="4" stroke-opacity="1" stroke-miterlimit="10"></path><path stroke-linecap="butt" transform="matrix(2.033335, 0, 0, 2.033487, -93.404901, -329.697694)" fill="none" stroke-linejoin="miter" d="M 125.049819 242.839555 L 108.89909 242.839555 " stroke="#1d4798" stroke-width="4" stroke-opacity="1" stroke-miterlimit="10"></path><path stroke-linecap="butt" transform="matrix(2.033335, 0, 0, 2.033487, -93.404901, -329.697694)" fill="none" stroke-linejoin="miter" d="M 65.339957 290.750262 C 64.890418 290.659977 64.410142 290.759867 64.029763 291.019197 C 63.649385 291.280448 63.38043 291.680008 63.299743 292.139118 L 61.830098 299.840253 C 61.649514 300.789209 62.270031 301.699744 63.219057 301.880315 L 66.189085 302.45084 C 66.329326 304.079816 66.659756 305.679977 67.180375 307.230193 L 64.669491 308.930245 C 64.289112 309.189574 64.020158 309.589134 63.939471 310.050165 C 63.849179 310.49967 63.939471 310.979911 64.210347 311.360261 L 68.619283 317.84927 C 68.880553 318.229621 69.280143 318.500476 69.729682 318.579236 C 70.17922 318.669521 70.649891 318.569631 71.039875 318.310301 L 73.550759 316.61025 C 74.799478 317.670621 76.169225 318.569631 77.629265 319.289991 L 77.060618 322.269403 C 76.880034 323.210674 77.500551 324.130815 78.449577 324.309465 L 86.149365 325.780921 C 86.260789 325.800131 86.370292 325.809736 86.479795 325.809736 C 87.300107 325.809736 88.030127 325.229605 88.189579 324.390145 L 88.760147 321.420338 C 90.389244 321.280108 91.989524 320.949702 93.539856 320.429122 L 95.240034 322.939819 C 95.499383 323.320169 95.900894 323.589104 96.360038 323.669784 C 96.809577 323.76007 97.280247 323.66018 97.670232 323.40085 L 104.159724 318.990321 C 104.960825 318.450531 105.16062 317.359425 104.620789 316.56991 L 102.909085 314.059213 C 103.969535 312.810587 104.870533 311.440942 105.600553 309.97909 L 108.570581 310.549615 C 109.510001 310.730186 110.43021 310.109715 110.610794 309.16076 L 112.08044 301.459624 C 112.170732 301.010119 112.070834 300.539484 111.809564 300.149528 C 111.550215 299.769178 111.150625 299.500243 110.68956 299.419563 L 107.719531 298.850958 C 107.579291 297.220062 107.250782 295.6199 106.730162 294.069684 L 109.239125 292.369633 C 110.040226 291.829843 110.240021 290.740657 109.700191 289.949221 L 105.289334 283.460212 C 105.029985 283.079862 104.630395 282.810927 104.16933 282.730247 C 103.719791 282.639962 103.24912 282.739852 102.859136 282.999182 L 100.350173 284.699233 C 99.099534 283.640783 97.729786 282.739852 96.269746 282.009886 L 96.840314 279.040079 C 97.020898 278.089203 96.400381 277.180588 95.449434 277.000018 L 87.749646 275.530482 C 87.300107 275.440197 86.829437 275.540087 86.439452 275.799417 C 86.059073 276.060668 85.790119 276.460228 85.709432 276.919337 L 85.140785 279.889144 C 83.509767 280.029375 81.909487 280.35978 80.359155 280.880361 L 78.660898 278.369664 C 78.399628 277.989313 78.000038 277.720379 77.540894 277.639698 C 77.089435 277.549413 76.620685 277.649303 76.230701 277.910554 L 69.739287 282.319161 C 69.360829 282.580412 69.089954 282.979972 69.009267 283.429477 C 68.920896 283.878982 69.009267 284.349618 69.280143 284.739573 L 70.980321 287.25027 C 69.919871 288.500816 69.020794 289.870462 68.290774 291.330393 L 65.309219 290.759867 Z M 65.339957 290.750262 " stroke="#1d4798" stroke-width="4" stroke-opacity="1" stroke-miterlimit="10"></path><path stroke-linecap="butt" transform="matrix(2.033335, 0, 0, 2.033487, -93.404901, -329.697694)" fill="none" stroke-linejoin="miter" d="M 84.61056 312.950818 C 85.400134 313.100653 86.189709 313.169807 86.960072 313.169807 C 92.850179 313.169807 98.11977 308.98019 99.270512 302.990631 C 100.569179 296.200031 96.100689 289.630342 89.309583 288.32985 C 86.020651 287.699775 82.689455 288.3894 79.919222 290.270022 C 77.15091 292.150643 75.279754 294.99943 74.649631 298.290037 C 74.019509 301.580645 74.709186 304.909672 76.599553 307.679698 C 78.480315 310.449725 81.329313 312.320742 84.620166 312.950818 Z M 84.61056 312.950818 " stroke="#1d4798" stroke-width="4" stroke-opacity="1" stroke-miterlimit="10"></path><path stroke-linecap="butt" transform="matrix(2.033335, 0, 0, 2.033487, -93.404901, -329.697694)" fill="none" stroke-linejoin="miter" d="M 177.209739 249.370825 C 177.209739 249.370825 177.169395 249.409244 177.15979 249.409244 C 176.170421 250.139209 175.129182 250.809625 174.039915 251.410886 C 171.500215 252.849686 168.699244 253.940793 165.710005 254.599683 C 160.849609 255.669658 156.010346 255.529428 151.489986 254.359562 C 148.650593 253.629597 145.939914 252.490466 143.450162 250.9998 C 139.50037 248.640859 136.090409 245.400197 133.529576 241.479514 C 131.560443 238.480892 130.100404 235.069264 129.280092 231.359887 C 128.940056 229.859616 128.730656 228.37087 128.630758 226.870599 C 128.569283 225.950459 128.540467 225.030318 128.559678 224.119782 C 128.64997 219.720779 129.689287 215.479296 131.529706 211.629688 C 135.429549 203.429103 142.96028 197.039984 152.519698 194.919242 C 169.000857 191.28094 185.299511 201.669502 188.949611 218.149433 C 191.639158 230.330251 186.659654 242.420785 177.219344 249.359299 Z M 177.209739 249.370825 " stroke="#1d4798" stroke-width="4" stroke-opacity="1" stroke-miterlimit="10"></path><path stroke-linecap="butt" transform="matrix(2.033335, 0, 0, 2.033487, -93.404901, -329.697694)" fill="none" stroke-linejoin="miter" d="M 182.650308 255.279703 C 182.390959 255.469878 182.139294 255.669658 181.870339 255.859833 C 179.470879 257.619434 176.850492 259.119706 174.03031 260.289571 C 171.930542 261.169372 169.71935 261.880128 167.419788 262.389183 C 162.78032 263.409213 157.180299 263.330454 151.48038 262.020358 C 148.790833 261.409492 146.080154 260.520087 143.440556 259.350221 C 131.570049 254.100232 121.159581 243.16996 120.550591 225.669998 C 120.500642 223.499311 120.629356 221.349755 120.940575 219.250144 C 121.649463 214.30943 123.320824 209.580022 125.79905 205.34046 C 131.030219 196.369568 139.840406 189.519418 150.769572 187.100927 C 171.559769 182.509829 192.140566 195.629998 196.739691 216.409041 C 199.350473 228.23064 196.249809 239.979242 189.239698 248.759959 C 187.320514 251.170766 185.120849 253.360662 182.650308 255.260493 " stroke="#1d4798" stroke-width="4" stroke-opacity="1" stroke-miterlimit="10"></path><path stroke-linecap="butt" transform="matrix(2.033335, 0, 0, 2.033487, -93.404901, -329.697694)" fill="none" stroke-linejoin="miter" d="M 214.110322 281.639141 C 213.099821 282.659171 211.780022 283.160542 210.460223 283.160542 C 209.140423 283.160542 207.730332 282.620752 206.719831 281.539251 L 182.279534 255.660053 L 182.650308 255.279703 L 189.1398 248.679278 L 189.239698 248.779168 L 214.160271 274.410561 C 216.119798 276.419887 216.100587 279.650945 214.119927 281.629536 Z M 214.110322 281.639141 " stroke="#1d4798" stroke-width="4" stroke-opacity="1" stroke-miterlimit="10"></path></svg>